<?xml version="1.0" encoding="UTF-8"?>
<svg xmlns="http://www.w3.org/2000/svg" xmlns:xlink="http://www.w3.org/1999/xlink" width="50pt" height="50pt" viewBox="0 0 50 50" version="1.1">
<g id="surface26811630">
<path style=" stroke:none;fill-rule:nonzero;fill:rgb(47.45098%,54.117647%,68.235294%);fill-opacity:1;" d="M 9 4 C 6.253906 4 4 6.253906 4 9 L 4 41 C 4 43.746094 6.253906 46 9 46 L 41 46 C 43.746094 46 46 43.746094 46 41 L 46 9 C 46 6.253906 43.746094 4 41 4 Z M 9 6 L 41 6 C 42.65625 6 44 7.34375 44 9 L 44 41 C 44 42.65625 42.65625 44 41 44 L 9 44 C 7.34375 44 6 42.65625 6 41 L 6 9 C 6 7.34375 7.34375 6 9 6 Z M 24 13 L 24 24 L 13 24 L 13 26 L 24 26 L 24 37 L 26 37 L 26 26 L 37 26 L 37 24 L 26 24 L 26 13 Z M 24 13 "/>
</g>
</svg>
