<svg xmlns="http://www.w3.org/2000/svg" viewBox="0 0 512 512" width="96px" height="96px"><path fill="#FCBF95" d="M258.9 63.6c-9-7.8-19.8-12-31.7-11.6-8.5.3-19.4 2.3-24 10.2-.8 11.8.4 25.9 2 38.1 2.3 17.2 5.8 34.7 13 50.6 5 10.9 13.8 24.7 26.5 24.3 23.2-.8 30.5-25 32.4-44.3C279.4 107.5 278 80.2 258.9 63.6zM458.1 400.1c-2.2-26.9-26.2-47.5-47.1-61.5-11.8-8-24.5-15.1-37.4-21.1-9.1-4.2-18.6-7.4-27.1-12.1-3.3 6.2-7.3 12-12.1 17-8.8 9.2-20.2 17.6-33.4 18.6-12 .9-23-3.8-30.9-12.7-4.1-4.6-7.3-9.8-9.8-15.3-2 8.7-5.3 17-10.6 24.9-7.7 11.5-17.3 22.3-30 28.2-26.9 12.5-51.7-7.1-65.2-29.5-1.2-2-2.4-4.1-3.7-6.1-.7.1-1.4.1-2.3 0-6.2-1-15 6-20 9.2-5.8 3.7-11.5 7.5-17 11.7-11.3 8.7-22.4 18.9-29.3 31.6-12.8 23.5-9.6 53.1 9.1 72.7 20.8 21.9 50.8 25.2 79.3 19.6 20.1-3.9 39.7-11.6 57.9-21.6-1.4-4.8 5.1-10.4 10.4-6.4.1.1.2.1.3.2 6.7-4.1 13.1-8.5 19.3-13.1 27.8-20.6 52.7-44.6 79.9-65.9 5.6-4.4 11.7 3.2 8.6 8.5 0 0 0 0 0 0 5.9 9.7 13.3 19.1 22.5 25.8 8.4 6.1 21.3 10.5 29.7 1.6 6.8-7.3 1-17-4.3-23.4-7-8.3-16.3-14.4-26.3-18.4-28.9-11.4-54.6 3.1-80.3 15.4-23.9 11.5-49.8 23.6-76.8 23.9-.3.8-.7 1.7-1.1 2.5-9.5 18-36.1 22.8-54.1 26-9.9 1.7-20.8 3.8-30.8 1.7-8.8-1.9-19-7.7-19.1-18.1-.1-11.5 8.7-20.7 17.8-26.6 12.5-8 25.7-8.2 39.8-8.2.2-2.7 2-5.1 5.5-5.1 2.4 0 4.7 0 7.1.1 9.3.3 20 .6 28.2 5.8 3.8 2.4 6.2 5.7 7.3 9.4 6.8-.2 13.6-1.1 20.2-2.8 15-3.9 29.4-9.8 43.5-16.4 13.6-6.3 26.9-14.2 41.1-19.1 28-9.6 59.7-5.5 81.7 15.6 7.7 7.3 15.9 17.4 16.4 28.6.5 11.8-7.7 21.9-19.1 25.2-24.9 7.2-46.5-16.1-58.5-35.3-19.9 16.1-38.8 33.5-58.8 49.4-9.1 7.2-18.5 14-28.3 20.3 37.2 21.6 84.6 21.4 125.9 13.7 19.6-3.7 40-9.7 56.5-21.4C447.8 436.5 459.7 419.4 458.1 400.1z"/><path fill="#FCBF95" d="M340.5 203.6c-12.9-20.7-35.2-31.9-59.3-32.8-1.3-.1-2.5-.5-3.4-1.1-9.8 13.5-27.1 21.8-43.7 16.1-7.1-2.5-12.9-7.3-17.5-13.3-.7 1.9-2.4 3.3-5.1 3.3-20.9.4-41.9 15.4-56.8 28.9-6.9 6.3-14.6 13.2-18.4 21.9-4.3 9.9-4.6 20.9-2.8 31.4 3.9 22.9 15.3 44 26.9 63.8 9.7 16.6 26.3 42.3 49.5 34.6 13.1-4.3 23.6-15.5 30.4-27.2 3.7-6.3 7.1-13 8.3-20.2 1.4-7.9 1.7-15.8 1.6-23.8 0-8.8-.3-17.5.2-26.3 0-1.1.1-2.1.1-3.2-.2-3.7-.5-7.3-.8-10.9-.2-.8-.4-1.7-.7-2.5-.3-.7-1-3.3-1.9-3.7.1.2-1.6.7-1.8.9-1.5 1.1-2.8 2.3-4.1 3.7-2.3 2.5-3 6-3.5 9.3-1.9 14.4 3.6 44.2-16.2 48.6-21 4.6-31.9-26.4-36.9-41.2-2.6-7.6 9.2-11.8 11.8-4.1.8 2.4 1.6 4.8 2.5 7.1 3.1 8 7.4 20.6 15.4 25 7.9 4.2 9.1-5.9 9.6-11.6.8-9.7-.2-19.8 2-29.3 2.3-9.7 10-19.9 20.6-20.9 4.5-.4 7.8 1.6 10.3 4.7 10.5-1.3 19.6 2.6 24.4 12.6 3.9 8.1 3.8 18.1 8.5 25.7 2.2 3.6 5.4 5.5 9.8 5.1 4.2-.5 6.2-3.9 7.6-7.6 3.7-9.7 3-20.6 6.9-30.2 3-7.5 14.2-1.9 11.2 5.6-3.9 9.7-2.7 22.1-7.7 32.1-5.4 10.9-19 16.9-30.2 10-9.5-5.9-11.8-16.3-14.4-26.3-1-3.8-2-9.2-4.9-12-1.8-1.7-3.8-2.4-6-2.6 0 .3.1.6.1.8.3 1.7.5 3.4.7 4.8.1 1.6.2 3.3.2 4.9 1.2 15.9 1.5 32.6 6.5 47.8 3.8 11.5 10.9 24.8 24.2 26.7 12.7 1.8 24.4-6.3 32.4-15.5 9.4-10.9 15.1-24.2 18.9-38C351.7 251.1 354.2 225.6 340.5 203.6zM191.2 388.2c-5.5-1.1-11.1-1.3-16.7-1.4-.2 2.7-2 5.1-5.5 5.1-11.9-.1-25.5-1.8-36 5-4.3 2.8-16.2 10.5-13.8 17.3 2.4 7 14.1 6.7 19.9 6.2 7.2-.7 14.3-1.8 21.3-3.2 8.4-1.7 17-4 24.9-7.5 5.2-2.3 12.7-5.8 14.6-11.7C202 391.3 197.4 389.4 191.2 388.2z"/><path d="M433.6,340c-12.9-10.8-27.6-19.7-42.4-27.7c-11.9-6.4-25-10.6-36.9-16.8c-0.5-0.8-1.3-1.5-2.3-2c1.1-2.7,2-5.4,2.9-8.1c4.2-13,7.5-26.3,8.2-40c1.2-23.6-7.5-47-24.1-63.7c-14.1-14.2-33.4-21.2-53-23c-0.6-0.2-1.3-0.3-2-0.4c5.4-13.5,6.2-29.1,6.4-43.3c0.3-18.5-3.8-37.1-15.2-52.1c-11.2-14.8-28-22.9-46.3-23.4c-12.2-0.3-24.7,3.2-32.6,11.7c-2.4,0.2-4.6,1.7-5,4.9c-0.1,1-0.2,2-0.3,3c-0.5,1.2-1,2.5-1.5,3.8c-0.7,2.2-0.1,4,1,5.2c-0.2,10.4,0.7,20.8,2,31c2.1,18,5.8,36.3,12.7,53.1c1.5,3.7,3.3,7.5,5.3,11.2c0,0,0,0-0.1,0c-24.9,0.4-48.7,18.2-66.4,34.1c-8.7,7.8-16.7,16.7-20.8,27.8c-4.5,12.4-4.1,25.8-1.5,38.5c3.9,19.2,12.3,37.3,21.9,54.5c-3.8,0.7-7.3,2.4-10.9,4.4c-6.2,3.3-12.1,7-17.9,10.9c-11.1,7.5-21.7,15.9-30.8,25.8c-18.7,20.2-26.7,46.9-19.4,73.8c7,25.4,27.8,45,52.5,53c29.5,9.6,63.6,1.6,91.4-9.6c10.3-4.2,20.3-9.1,29.9-14.6c38.6,24.8,86.9,26.9,131.4,20.2c37.5-5.7,84.7-20.6,97.6-60.8C478,388.8,457.8,360.2,433.6,340z M205.2,100.3c-1.6-12.3-2.8-26.4-2-38.1c4.6-7.9,15.4-9.9,24-10.2c11.9-0.4,22.7,3.8,31.7,11.6c19.1,16.6,20.5,43.9,18.3,67.3c-1.8,19.3-9.2,43.5-32.4,44.3c-12.7,0.4-21.6-13.4-26.5-24.3C211,135.1,207.5,117.5,205.2,100.3z M133.4,258.2c-1.8-10.5-1.5-21.5,2.8-31.4c3.8-8.7,11.5-15.7,18.4-21.9c14.9-13.5,35.9-28.5,56.8-28.9c2.7,0,4.4-1.5,5.1-3.3c4.7,5.9,10.4,10.8,17.5,13.3c16.6,5.7,33.8-2.6,43.7-16.1c0.9,0.6,2.1,1,3.4,1.1c24.1,1,46.4,12.1,59.3,32.8c13.7,22,11.1,47.5,4.6,71.3c-3.8,13.8-9.5,27.1-18.9,38c-7.9,9.2-19.7,17.3-32.4,15.5c-13.3-1.9-20.4-15.2-24.2-26.7c-5.1-15.3-5.4-31.9-6.5-47.8c0-1.6-0.1-3.3-0.2-4.9c-0.1-1.5-0.3-3.1-0.7-4.8c0-0.3-0.1-0.6-0.1-0.8c2.2,0.1,4.2,0.8,6,2.6c2.9,2.8,3.9,8.3,4.9,12c2.7,10.1,5,20.5,14.4,26.3c11.2,6.9,24.8,1,30.2-10c5-10,3.8-22.3,7.7-32.1c3-7.4-8.2-13-11.2-5.6c-3.9,9.7-3.2,20.5-6.9,30.2c-1.4,3.7-3.4,7.1-7.6,7.6c-4.4,0.5-7.6-1.5-9.8-5.1c-4.7-7.6-4.6-17.6-8.5-25.7c-4.9-10-13.9-13.9-24.4-12.6c-2.5-3.1-5.8-5.1-10.3-4.7c-10.6,1-18.3,11.2-20.6,20.9c-2.3,9.5-1.2,19.6-2,29.3c-0.5,5.7-1.7,15.8-9.6,11.6c-8.1-4.4-12.4-17-15.4-25c-0.9-2.4-1.7-4.7-2.5-7.1c-2.6-7.6-14.3-3.5-11.8,4.1c5,14.9,15.9,45.9,36.9,41.2c19.8-4.4,14.2-34.2,16.2-48.6c0.4-3.3,1.1-6.8,3.5-9.3c1.3-1.4,2.6-2.6,4.1-3.7c0.2-0.2,2-0.7,1.8-0.9c1,0.4,1.7,3,1.9,3.7c0.3,0.8,0.5,1.7,0.7,2.5c0.3,3.5,0.6,7.2,0.8,10.9c0,1.1-0.1,2.2-0.1,3.2c-0.4,8.8-0.2,17.5-0.2,26.3c0,8-0.3,15.9-1.6,23.8c-1.3,7.3-4.6,13.9-8.3,20.2c-6.9,11.7-17.3,22.8-30.4,27.2c-23.2,7.7-39.8-18.1-49.5-34.6C148.8,302.2,137.3,281,133.4,258.2z M432.8,447.2C416.4,459,396,465,376.4,468.7c-41.3,7.7-88.7,7.9-125.9-13.7c9.8-6.2,19.2-13.1,28.3-20.3c20.1-15.9,38.9-33.3,58.8-49.4c12,19.2,33.6,42.5,58.5,35.3c11.3-3.3,19.6-13.3,19.1-25.2c-0.5-11.1-8.8-21.2-16.4-28.6c-22-21.1-53.7-25.1-81.7-15.6c-14.2,4.9-27.5,12.8-41.1,19.1c-14,6.6-28.4,12.5-43.5,16.4c-6.6,1.7-13.4,2.6-20.2,2.8c-1.1-3.7-3.6-7.1-7.3-9.4c-8.2-5.1-18.8-5.5-28.2-5.8c-2.4-0.1-4.7-0.1-7.1-0.1c-3.5,0-5.3,2.4-5.5,5.1c-14.1-0.1-27.3,0.1-39.8,8.2c-9.2,5.9-17.9,15.1-17.8,26.6c0.1,10.3,10.3,16.2,19.1,18.1c10,2.2,20.8,0.1,30.8-1.7c18.1-3.2,44.7-8,54.1-26c0.4-0.8,0.8-1.7,1.1-2.5c27-0.4,52.9-12.4,76.8-23.9c25.7-12.3,51.4-26.8,80.3-15.4c10,4,19.4,10,26.3,18.4c5.4,6.4,11.2,16.1,4.3,23.4c-8.4,9-21.3,4.5-29.7-1.6c-9.3-6.7-16.6-16.1-22.5-25.8c0,0,0,0,0,0c3.1-5.2-3-12.8-8.6-8.5c-27.2,21.3-52.2,45.3-79.9,65.9c-6.2,4.6-12.7,9-19.3,13.1c-0.1-0.1-0.2-0.1-0.3-0.2c-5.2-4-11.7,1.6-10.4,6.4c-18.2,10-37.7,17.7-57.9,21.6c-28.5,5.6-58.5,2.3-79.3-19.6c-18.7-19.6-21.9-49.2-9.1-72.7c6.9-12.7,18-22.9,29.3-31.6c5.5-4.2,11.2-8,17-11.7c5-3.2,13.8-10.2,20-9.2c0.8,0.1,1.6,0.1,2.3,0c1.2,2.1,2.4,4.1,3.7,6.1c13.5,22.3,38.3,42,65.2,29.5c12.7-5.9,22.3-16.7,30-28.2c5.3-7.9,8.6-16.2,10.6-24.9c2.5,5.5,5.6,10.7,9.8,15.3c8,8.9,19,13.6,30.9,12.7c13.2-1,24.6-9.3,33.4-18.6c4.8-5.1,8.8-10.9,12.1-17c8.5,4.6,17.9,7.9,27.1,12.1c13,6,25.6,13.1,37.4,21.1c20.9,14,44.9,34.7,47.1,61.5C459.7,419.4,447.8,436.5,432.8,447.2z M199.8,398.1c-1.9,5.9-9.4,9.4-14.6,11.7c-7.9,3.5-16.5,5.7-24.9,7.5c-7,1.4-14.2,2.6-21.3,3.2c-5.8,0.5-17.5,0.8-19.9-6.2c-2.3-6.8,9.6-14.5,13.8-17.3c10.6-6.8,24.1-5.1,36-5c3.5,0,5.3-2.4,5.5-5.1c5.6,0.1,11.2,0.3,16.7,1.4C197.4,389.4,202,391.3,199.8,398.1z"/></svg>