<?xml version="1.0" encoding="UTF-8"?>
<svg xmlns="http://www.w3.org/2000/svg" xmlns:xlink="http://www.w3.org/1999/xlink" width="16pt" height="16pt" viewBox="0 0 16 16" version="1.1">
<g id="surface184336">
<path style=" stroke:none;fill-rule:nonzero;fill:rgb(80.392157%,38.823529%,34.509804%);fill-opacity:1;" d="M 2.5 1 C 1.675781 1 1 1.675781 1 2.5 L 1 12.5 C 1 13.324219 1.675781 14 2.5 14 L 12.5 14 C 13.324219 14 14 13.324219 14 12.5 L 14 2.5 C 14 1.675781 13.324219 1 12.5 1 Z M 2.5 2 L 12.5 2 C 12.78125 2 13 2.21875 13 2.5 L 13 12.5 C 13 12.78125 12.78125 13 12.5 13 L 2.5 13 C 2.21875 13 2 12.78125 2 12.5 L 2 2.5 C 2 2.21875 2.21875 2 2.5 2 Z M 5 5 L 6.875 7.5 L 5 10 L 6.25 10 L 7.5 8.335938 L 8.75 10 L 10 10 L 8.125 7.5 L 10 5 L 8.75 5 L 7.5 6.664062 L 6.25 5 Z M 5 5 "/>
</g>
</svg>
