<?xml version="1.0" encoding="UTF-8"?>
<svg xmlns="http://www.w3.org/2000/svg" xmlns:xlink="http://www.w3.org/1999/xlink" width="100pt" height="100pt" viewBox="0 0 100 100" version="1.1">
<g id="surface26820157">
<path style=" stroke:none;fill-rule:nonzero;fill:rgb(100%,100%,100%);fill-opacity:1;" d="M 69 82 L 31 82 C 23.820312 82 18 76.179688 18 69 L 18 31 C 18 23.820312 23.820312 18 31 18 L 69 18 C 76.179688 18 82 23.820312 82 31 L 82 69 C 82 76.179688 76.179688 82 69 82 Z M 69 82 "/>
<path style=" stroke:none;fill-rule:nonzero;fill:rgb(99.215686%,98.823529%,93.333333%);fill-opacity:1;" d="M 66.5 78 L 33.5 78 C 27.148438 78 22 72.851562 22 66.5 L 22 33.5 C 22 27.148438 27.148438 22 33.5 22 L 66.5 22 C 72.851562 22 78 27.148438 78 33.5 L 78 66.5 C 78 72.851562 72.851562 78 66.5 78 Z M 66.5 78 "/>
<path style=" stroke:none;fill-rule:nonzero;fill:rgb(0%,0%,0%);fill-opacity:1;" d="M 69 83 L 31 83 C 23.28125 83 17 76.71875 17 69 L 17 31 C 17 23.28125 23.28125 17 31 17 L 69 17 C 76.71875 17 83 23.28125 83 31 L 83 69 C 83 76.71875 76.71875 83 69 83 Z M 31 19 C 24.382812 19 19 24.382812 19 31 L 19 69 C 19 75.617188 24.382812 81 31 81 L 69 81 C 75.617188 81 81 75.617188 81 69 L 81 31 C 81 24.382812 75.617188 19 69 19 Z M 31 19 "/>
<path style=" stroke:none;fill-rule:nonzero;fill:rgb(0%,0%,0%);fill-opacity:1;" d="M 66.5 78 L 33.5 78 C 27.160156 78 22 72.839844 22 66.5 L 22 33.5 C 22 27.160156 27.160156 22 33.5 22 L 66.5 22 C 66.851562 22 67.199219 22.019531 67.546875 22.054688 C 67.820312 22.078125 68.023438 22.320312 67.996094 22.597656 C 67.972656 22.871094 67.726562 23.074219 67.453125 23.050781 C 67.140625 23.019531 66.824219 23 66.5 23 L 33.5 23 C 27.710938 23 23 27.710938 23 33.5 L 23 66.5 C 23 72.289062 27.710938 77 33.5 77 L 66.5 77 C 72.289062 77 77 72.289062 77 66.5 L 77 49.5 C 77 49.222656 77.222656 49 77.5 49 C 77.777344 49 78 49.222656 78 49.5 L 78 66.5 C 78 72.839844 72.839844 78 66.5 78 Z M 66.5 78 "/>
<path style=" stroke:none;fill-rule:nonzero;fill:rgb(0%,0%,0%);fill-opacity:1;" d="M 77.5 40 C 77.222656 40 77 39.777344 77 39.5 L 77 37.5 C 77 37.222656 77.222656 37 77.5 37 C 77.777344 37 78 37.222656 78 37.5 L 78 39.5 C 78 39.777344 77.777344 40 77.5 40 Z M 77.5 40 "/>
<path style=" stroke:none;fill-rule:nonzero;fill:rgb(0%,0%,0%);fill-opacity:1;" d="M 77.5 47 C 77.222656 47 77 46.777344 77 46.5 L 77 42.5 C 77 42.222656 77.222656 42 77.5 42 C 77.777344 42 78 42.222656 78 42.5 L 78 46.5 C 78 46.777344 77.777344 47 77.5 47 Z M 77.5 47 "/>
<path style=" stroke:none;fill-rule:nonzero;fill:rgb(100%,100%,100%);fill-opacity:1;" d="M 33.5 50 C 33.5 50 40 59.5 50 59.5 C 60 59.5 66.5 50 66.5 50 C 66.5 50 60 40.5 50 40.5 C 40 40.5 33.5 50 33.5 50 Z M 33.5 50 "/>
<path style=" stroke:none;fill-rule:nonzero;fill:rgb(61.568627%,44.705882%,23.921569%);fill-opacity:1;" d="M 58 50 C 58 54.417969 54.417969 58 50 58 C 45.582031 58 42 54.417969 42 50 C 42 45.582031 45.582031 42 50 42 C 54.417969 42 58 45.582031 58 50 Z M 58 50 "/>
<path style=" stroke:none;fill-rule:nonzero;fill:rgb(0%,0%,0%);fill-opacity:1;" d="M 52.5 50 C 52.5 51.378906 51.378906 52.5 50 52.5 C 48.621094 52.5 47.5 51.378906 47.5 50 C 47.5 48.621094 48.621094 47.5 50 47.5 C 51.378906 47.5 52.5 48.621094 52.5 50 Z M 52.5 50 "/>
<path style=" stroke:none;fill-rule:nonzero;fill:rgb(0%,0%,0%);fill-opacity:1;" d="M 50 53 C 48.347656 53 47 51.652344 47 50 C 47 48.347656 48.347656 47 50 47 C 51.652344 47 53 48.347656 53 50 C 53 51.652344 51.652344 53 50 53 Z M 50 48 C 48.898438 48 48 48.898438 48 50 C 48 51.101562 48.898438 52 50 52 C 51.101562 52 52 51.101562 52 50 C 52 48.898438 51.101562 48 50 48 Z M 50 48 "/>
<path style=" stroke:none;fill-rule:nonzero;fill:rgb(0%,0%,0%);fill-opacity:1;" d="M 50 58 C 45.589844 58 42 54.410156 42 50 C 42 45.589844 45.589844 42 50 42 C 54.410156 42 58 45.589844 58 50 C 58 50.152344 57.988281 50.300781 57.980469 50.449219 C 57.960938 50.726562 57.730469 50.972656 57.441406 50.957031 C 57.167969 50.9375 56.957031 50.742188 56.976562 50.464844 L 56.980469 50.378906 C 56.992188 50.253906 57 50.128906 57 50 C 57 46.140625 53.859375 43 50 43 C 46.140625 43 43 46.140625 43 50 C 43 53.859375 46.140625 57 50 57 C 51.519531 57 52.972656 56.511719 54.199219 55.589844 C 54.421875 55.425781 54.734375 55.46875 54.898438 55.6875 C 55.066406 55.910156 55.019531 56.222656 54.800781 56.390625 C 53.398438 57.441406 51.738281 58 50 58 Z M 50 58 "/>
<path style=" stroke:none;fill-rule:nonzero;fill:rgb(0%,0%,0%);fill-opacity:1;" d="M 55.988281 55 C 55.886719 55 55.777344 54.96875 55.6875 54.898438 C 55.46875 54.734375 55.425781 54.421875 55.589844 54.199219 C 56.019531 53.628906 56.355469 53 56.59375 52.332031 C 56.683594 52.074219 56.96875 51.9375 57.230469 52.027344 C 57.488281 52.121094 57.625 52.40625 57.535156 52.667969 C 57.261719 53.429688 56.878906 54.148438 56.386719 54.800781 C 56.289062 54.929688 56.140625 55 55.988281 55 Z M 55.988281 55 "/>
<path style=" stroke:none;fill-rule:nonzero;fill:rgb(0%,0%,0%);fill-opacity:1;" d="M 50 60 C 39.851562 60 33.359375 50.679688 33.085938 50.28125 C 32.96875 50.113281 32.96875 49.886719 33.085938 49.71875 C 33.359375 49.320312 39.851562 40 50 40 C 60.148438 40 66.640625 49.320312 66.914062 49.71875 C 67.03125 49.886719 67.03125 50.113281 66.914062 50.28125 C 66.640625 50.679688 60.148438 60 50 60 Z M 34.117188 50 C 35.289062 51.558594 41.347656 59 50 59 C 58.652344 59 64.710938 51.558594 65.882812 50 C 64.710938 48.441406 58.652344 41 50 41 C 41.347656 41 35.289062 48.441406 34.117188 50 Z M 34.117188 50 "/>
</g>
</svg>
