<?xml version="1.0" encoding="UTF-8"?>
<svg xmlns="http://www.w3.org/2000/svg" xmlns:xlink="http://www.w3.org/1999/xlink" width="50pt" height="50pt" viewBox="0 0 50 50" version="1.1">
<g id="surface26817977">
<path style=" stroke:none;fill-rule:nonzero;fill:rgb(100%,100%,100%);fill-opacity:1;" d="M 6.5 13.5 C 5.949219 13.5 5.5 13.949219 5.5 14.5 C 5.5 15.050781 5.949219 15.5 6.5 15.5 C 7.050781 15.5 7.5 15.050781 7.5 14.5 C 7.5 13.949219 7.050781 13.5 6.5 13.5 Z M 6.5 13.5 "/>
<path style=" stroke:none;fill-rule:nonzero;fill:rgb(100%,100%,100%);fill-opacity:1;" d="M 38.5 6 C 38.222656 6 38 6.222656 38 6.5 C 38 6.777344 38.222656 7 38.5 7 C 38.777344 7 39 6.777344 39 6.5 C 39 6.222656 38.777344 6 38.5 6 Z M 38.5 6 "/>
<path style=" stroke:none;fill-rule:nonzero;fill:rgb(100%,100%,100%);fill-opacity:1;" d="M 25 6.5 C 14.78125 6.5 6.5 14.78125 6.5 25 C 6.5 35.21875 14.78125 43.5 25 43.5 C 35.21875 43.5 43.5 35.21875 43.5 25 C 43.5 14.78125 35.21875 6.5 25 6.5 Z M 25 6.5 "/>
<path style=" stroke:none;fill-rule:nonzero;fill:rgb(100%,100%,100%);fill-opacity:1;" d="M 41.5 5.5 C 40.394531 5.5 39.5 6.394531 39.5 7.5 C 39.5 8.605469 40.394531 9.5 41.5 9.5 C 42.605469 9.5 43.5 8.605469 43.5 7.5 C 43.5 6.394531 42.605469 5.5 41.5 5.5 Z M 41.5 5.5 "/>
<path style=" stroke:none;fill-rule:nonzero;fill:rgb(100%,100%,100%);fill-opacity:1;" d="M 43.5 11 C 42.949219 11 42.5 11.449219 42.5 12 C 42.5 12.550781 42.949219 13 43.5 13 C 44.050781 13 44.5 12.550781 44.5 12 C 44.5 11.449219 44.050781 11 43.5 11 Z M 43.5 11 "/>
<path style=" stroke:none;fill-rule:nonzero;fill:rgb(100%,100%,100%);fill-opacity:1;" d="M 40.5 37 C 39.949219 37 39.5 37.449219 39.5 38 C 39.5 38.550781 39.949219 39 40.5 39 C 41.050781 39 41.5 38.550781 41.5 38 C 41.5 37.449219 41.050781 37 40.5 37 Z M 7.5 29.5 C 6.394531 29.5 5.5 30.394531 5.5 31.5 C 5.5 32.605469 6.394531 33.5 7.5 33.5 C 8.605469 33.5 9.5 32.605469 9.5 31.5 C 9.5 30.394531 8.605469 29.5 7.5 29.5 Z M 7.5 29.5 "/>
<path style=" stroke:none;fill-rule:nonzero;fill:rgb(100%,100%,100%);fill-opacity:1;" d="M 12.5 42.5 C 11.949219 42.5 11.5 42.949219 11.5 43.5 C 11.5 44.050781 11.949219 44.5 12.5 44.5 C 13.050781 44.5 13.5 44.050781 13.5 43.5 C 13.5 42.949219 13.050781 42.5 12.5 42.5 Z M 12.5 42.5 "/>
<path style=" stroke:none;fill-rule:nonzero;fill:rgb(100%,100%,100%);fill-opacity:1;" d="M 9.25 25.5 C 8.558594 25.5 8 26.058594 8 26.75 C 8 27.441406 8.558594 28 9.25 28 C 9.941406 28 10.5 27.441406 10.5 26.75 C 10.5 26.058594 9.941406 25.5 9.25 25.5 Z M 9.25 25.5 "/>
<path style=" stroke:none;fill-rule:nonzero;fill:rgb(100%,100%,100%);fill-opacity:1;" d="M 10.5 33 C 10.222656 33 10 33.222656 10 33.5 C 10 33.777344 10.222656 34 10.5 34 C 10.777344 34 11 33.777344 11 33.5 C 11 33.222656 10.777344 33 10.5 33 Z M 10.5 33 "/>
<path style=" stroke:none;fill-rule:nonzero;fill:rgb(100%,100%,100%);fill-opacity:1;" d="M 40 16.5 C 39.722656 16.5 39.5 16.722656 39.5 17 C 39.5 17.277344 39.722656 17.5 40 17.5 C 40.277344 17.5 40.5 17.277344 40.5 17 C 40.5 16.722656 40.277344 16.5 40 16.5 Z M 40 16.5 "/>
<path style=" stroke:none;fill-rule:nonzero;fill:rgb(47.058824%,62.745098%,81.176471%);fill-opacity:1;" d="M 17.5 36.148438 C 15.488281 36.148438 13.851562 34.511719 13.851562 32.5 L 13.851562 17.5 C 13.851562 15.488281 15.488281 13.851562 17.5 13.851562 L 32.5 13.851562 C 34.511719 13.851562 36.148438 15.488281 36.148438 17.5 L 36.148438 32.5 C 36.148438 34.511719 34.511719 36.148438 32.5 36.148438 Z M 17.5 36.148438 "/>
<path style=" stroke:none;fill-rule:nonzero;fill:rgb(27.843137%,16.862745%,16.078431%);fill-opacity:1;" d="M 32.5 14.199219 C 34.320312 14.199219 35.800781 15.679688 35.800781 17.5 L 35.800781 32.5 C 35.800781 34.320312 34.320312 35.800781 32.5 35.800781 L 17.5 35.800781 C 15.679688 35.800781 14.199219 34.320312 14.199219 32.5 L 14.199219 17.5 C 14.199219 15.679688 15.679688 14.199219 17.5 14.199219 L 32.5 14.199219 M 32.5 13.5 L 17.5 13.5 C 15.300781 13.5 13.5 15.300781 13.5 17.5 L 13.5 32.5 C 13.5 34.699219 15.300781 36.5 17.5 36.5 L 32.5 36.5 C 34.699219 36.5 36.5 34.699219 36.5 32.5 L 36.5 17.5 C 36.5 15.300781 34.699219 13.5 32.5 13.5 Z M 32.5 13.5 "/>
<path style=" stroke:none;fill-rule:nonzero;fill:rgb(99.215686%,98.823529%,93.333333%);fill-opacity:1;" d="M 31.796875 34.25 L 18.234375 34.25 C 16.898438 34.25 15.8125 33.164062 15.8125 31.828125 L 15.8125 18.171875 C 15.8125 16.835938 16.898438 15.75 18.234375 15.75 L 31.796875 15.75 C 33.132812 15.75 34.21875 16.835938 34.21875 18.171875 L 34.21875 31.828125 C 34.21875 33.164062 33.132812 34.25 31.796875 34.25 Z M 31.796875 34.25 "/>
<path style=" stroke:none;fill-rule:nonzero;fill:rgb(27.843137%,16.862745%,16.078431%);fill-opacity:1;" d="M 34 21.5 L 34 23.4375 C 34 23.574219 34.113281 23.6875 34.25 23.6875 C 34.386719 23.6875 34.5 23.574219 34.5 23.4375 L 34.5 21.5 C 34.5 21.363281 34.386719 21.25 34.25 21.25 C 34.113281 21.25 34 21.363281 34 21.5 Z M 34 19 L 34 20 C 34 20.136719 34.113281 20.25 34.25 20.25 C 34.386719 20.25 34.5 20.136719 34.5 20 L 34.5 19 C 34.5 18.863281 34.386719 18.75 34.25 18.75 C 34.113281 18.75 34 18.863281 34 19 "/>
<path style=" stroke:none;fill-rule:nonzero;fill:rgb(27.843137%,16.862745%,16.078431%);fill-opacity:1;" d="M 34 24.8125 L 34 32 C 34 32.550781 33.777344 33.046875 33.410156 33.410156 C 33.046875 33.777344 32.550781 34 32 34 L 18 34 C 17.449219 34 16.953125 33.777344 16.589844 33.410156 C 16.222656 33.046875 16 32.550781 16 32 L 16 18 C 16 17.449219 16.222656 16.953125 16.589844 16.589844 C 16.953125 16.222656 17.449219 16 18 16 L 30.6875 16 C 30.824219 16 30.9375 15.886719 30.9375 15.75 C 30.9375 15.613281 30.824219 15.5 30.6875 15.5 L 18 15.5 C 16.625 15.5 15.5 16.625 15.5 18 L 15.5 32 C 15.5 33.375 16.625 34.5 18 34.5 L 32 34.5 C 33.375 34.5 34.5 33.375 34.5 32 L 34.5 24.8125 C 34.5 24.675781 34.386719 24.5625 34.25 24.5625 C 34.113281 24.5625 34 24.675781 34 24.8125 Z M 34 24.8125 "/>
<path style=" stroke:none;fill-rule:nonzero;fill:rgb(88.235294%,87.45098%,81.176471%);fill-opacity:1;" d="M 31.964844 24.964844 C 31.964844 24.964844 28.878906 29.207031 25.074219 29.207031 C 21.269531 29.207031 18.1875 24.964844 18.1875 24.964844 C 18.1875 24.964844 21.269531 20.722656 25.074219 20.722656 C 28.878906 20.722656 31.964844 24.964844 31.964844 24.964844 Z M 31.964844 24.964844 "/>
<path style=" stroke:none;fill-rule:nonzero;fill:rgb(27.843137%,16.862745%,16.078431%);fill-opacity:1;" d="M 31.964844 24.964844 L 31.761719 24.816406 L 31.726562 24.863281 C 31.558594 25.085938 30.75 26.121094 29.550781 27.089844 C 28.347656 28.066406 26.769531 28.960938 25.074219 28.960938 C 23.269531 28.960938 21.589844 27.941406 20.367188 26.898438 C 19.753906 26.375 19.257812 25.855469 18.914062 25.464844 C 18.746094 25.269531 18.613281 25.105469 18.523438 24.992188 C 18.476562 24.9375 18.445312 24.890625 18.421875 24.863281 L 18.390625 24.820312 L 18.1875 24.964844 L 18.390625 25.113281 L 18.421875 25.070312 C 18.589844 24.84375 19.402344 23.808594 20.601562 22.839844 C 21.800781 21.867188 23.382812 20.96875 25.074219 20.972656 C 26.878906 20.96875 28.558594 21.992188 29.785156 23.035156 C 30.394531 23.554688 30.890625 24.074219 31.234375 24.464844 C 31.40625 24.660156 31.539062 24.824219 31.628906 24.9375 C 31.671875 24.992188 31.707031 25.039062 31.726562 25.066406 L 31.761719 25.113281 L 31.964844 24.964844 L 31.761719 24.816406 L 31.964844 24.964844 L 32.164062 24.816406 C 32.15625 24.808594 31.378906 23.734375 30.105469 22.652344 C 28.835938 21.574219 27.074219 20.472656 25.074219 20.472656 C 23.074219 20.472656 21.3125 21.574219 20.042969 22.652344 C 18.773438 23.734375 17.992188 24.808594 17.984375 24.820312 C 17.921875 24.90625 17.921875 25.023438 17.984375 25.113281 C 17.992188 25.121094 18.773438 26.195312 20.042969 27.277344 C 21.3125 28.355469 23.074219 29.457031 25.074219 29.460938 C 27.074219 29.457031 28.835938 28.355469 30.105469 27.277344 C 31.378906 26.195312 32.15625 25.121094 32.164062 25.113281 C 32.230469 25.023438 32.230469 24.90625 32.164062 24.820312 Z M 31.964844 24.964844 "/>
<path style=" stroke:none;fill-rule:nonzero;fill:rgb(63.921569%,79.215686%,93.72549%);fill-opacity:1;" d="M 25.074219 21.472656 C 26.953125 21.472656 28.480469 23 28.480469 24.878906 C 28.480469 26.757812 26.953125 28.28125 25.074219 28.28125 C 23.195312 28.28125 21.667969 26.757812 21.667969 24.878906 C 21.671875 23 23.195312 21.472656 25.074219 21.472656 Z M 25.074219 21.472656 "/>
<path style=" stroke:none;fill-rule:nonzero;fill:rgb(27.843137%,16.862745%,16.078431%);fill-opacity:1;" d="M 26.386719 27.882812 C 25.984375 28.058594 25.542969 28.15625 25.074219 28.15625 C 24.167969 28.15625 23.347656 27.789062 22.757812 27.195312 C 22.164062 26.601562 21.796875 25.785156 21.796875 24.878906 C 21.796875 23.972656 22.164062 23.152344 22.757812 22.558594 C 23.351562 21.964844 24.167969 21.597656 25.074219 21.597656 C 25.980469 21.597656 26.800781 21.964844 27.394531 22.558594 C 27.988281 23.152344 28.355469 23.972656 28.355469 24.878906 C 28.355469 25.449219 28.207031 25.984375 27.953125 26.449219 C 27.921875 26.511719 27.941406 26.585938 28.003906 26.621094 C 28.0625 26.652344 28.140625 26.632812 28.171875 26.570312 C 28.445312 26.070312 28.605469 25.492188 28.605469 24.878906 C 28.605469 22.929688 27.023438 21.347656 25.074219 21.347656 C 23.125 21.347656 21.546875 22.929688 21.542969 24.878906 C 21.542969 26.828125 23.125 28.40625 25.074219 28.40625 C 25.578125 28.40625 26.054688 28.300781 26.488281 28.113281 C 26.550781 28.085938 26.578125 28.011719 26.550781 27.949219 C 26.523438 27.886719 26.449219 27.855469 26.386719 27.882812 Z M 26.386719 27.882812 "/>
<path style=" stroke:none;fill-rule:nonzero;fill:rgb(27.843137%,16.862745%,16.078431%);fill-opacity:1;" d="M 27.636719 26.925781 C 27.496094 27.101562 27.335938 27.265625 27.160156 27.410156 C 27.105469 27.453125 27.097656 27.53125 27.140625 27.585938 C 27.1875 27.640625 27.265625 27.648438 27.316406 27.601562 C 27.507812 27.449219 27.679688 27.273438 27.832031 27.082031 C 27.875 27.027344 27.867188 26.949219 27.8125 26.90625 C 27.757812 26.863281 27.679688 26.871094 27.636719 26.925781 Z M 27.636719 26.925781 "/>
<path style=" stroke:none;fill-rule:nonzero;fill:rgb(47.058824%,62.745098%,81.176471%);fill-opacity:1;" d="M 25.0625 23.886719 C 24.515625 23.886719 24.070312 24.332031 24.070312 24.878906 C 24.070312 25.425781 24.515625 25.871094 25.0625 25.871094 C 25.609375 25.871094 26.054688 25.425781 26.054688 24.878906 C 26.054688 24.332031 25.609375 23.886719 25.0625 23.886719 Z M 25.0625 23.886719 "/>
<path style=" stroke:none;fill-rule:nonzero;fill:rgb(27.843137%,16.862745%,16.078431%);fill-opacity:1;" d="M 25.0625 23.886719 L 25.0625 24.011719 C 25.542969 24.011719 25.929688 24.398438 25.929688 24.878906 C 25.929688 25.355469 25.542969 25.742188 25.0625 25.746094 C 24.585938 25.742188 24.199219 25.355469 24.195312 24.878906 C 24.199219 24.398438 24.585938 24.011719 25.0625 24.011719 L 25.0625 23.761719 C 24.445312 23.761719 23.945312 24.261719 23.945312 24.878906 C 23.945312 25.496094 24.445312 25.996094 25.0625 25.996094 C 25.679688 25.996094 26.179688 25.496094 26.179688 24.878906 C 26.179688 24.261719 25.679688 23.761719 25.0625 23.761719 Z M 25.0625 23.886719 "/>
<path style=" stroke:none;fill-rule:nonzero;fill:rgb(27.843137%,16.862745%,16.078431%);fill-opacity:1;" d="M 24.949219 21.4375 L 24.949219 23.9375 L 25.199219 23.9375 L 25.199219 21.4375 M 24.949219 25.824219 L 24.949219 28.324219 L 25.199219 28.324219 L 25.199219 25.824219 M 23.609375 21.761719 L 24.589844 24.0625 L 24.820312 23.964844 L 23.839844 21.664062 M 25.328125 25.796875 L 26.308594 28.097656 L 26.539062 27.996094 L 25.558594 25.699219 M 21.839844 23.695312 L 24.15625 24.640625 L 24.25 24.40625 L 21.933594 23.464844 M 25.898438 25.351562 L 28.214844 26.296875 L 28.308594 26.066406 L 25.996094 25.121094 M 26.265625 21.648438 L 25.316406 23.960938 L 25.546875 24.054688 L 26.496094 21.742188 M 24.601562 25.703125 L 23.652344 28.015625 L 23.882812 28.113281 L 24.832031 25.800781 M 28.207031 23.445312 L 25.898438 24.402344 L 25.992188 24.632812 L 28.300781 23.675781 M 24.15625 25.125 L 21.847656 26.085938 L 21.941406 26.316406 L 24.25 25.355469 M 21.632812 25.003906 L 24.132812 25.003906 L 24.132812 24.753906 L 21.632812 24.753906 M 26.015625 25.003906 L 28.515625 25.003906 L 28.515625 24.753906 L 26.015625 24.753906 M 22.550781 22.535156 L 24.320312 24.300781 L 24.496094 24.125 L 22.726562 22.359375 M 25.652344 25.636719 L 27.421875 27.402344 L 27.597656 27.226562 L 25.828125 25.457031 M 27.421875 22.359375 L 25.652344 24.125 L 25.828125 24.300781 L 27.597656 22.535156 M 24.320312 25.457031 L 22.550781 27.226562 L 22.726562 27.402344 L 24.496094 25.636719 "/>
</g>
</svg>
