<svg xmlns="http://www.w3.org/2000/svg" viewBox="0 0 100 100" width="100px" height="100px"><path fill="#f59172" d="M83,33.35C83,14.546,66.557,13,61,13s-11,2-11,2s-5.443-2-11-2s-22,1.546-22,20.35 c0,6.586,1.246,11.731,3,15.643c0,0-1,3.007-1,8.007c0,19,20,26,20,26v-4c4.718,5.002,11,8,11,8s6.282-2.998,11-8v4c0,0,20-7,20-26 c0-5-1-8-1-8C81.754,45.088,83,39.936,83,33.35z"/><path fill="#d38b5d" d="M68.5,43.5h-37v10c0,18,7.783,25.071,7.864,25.157c4.111,4.358,9.5,7.21,10.636,7.785 c1.136-0.575,6.525-3.427,10.636-7.785C60.72,78.567,68.5,71.5,68.5,53.5V43.5z"/><path fill="none" stroke="#1f212b" stroke-miterlimit="10" d="M68.5,43.5h-37v10c0,18,7.783,25.071,7.864,25.157 c4.111,4.358,9.5,7.21,10.636,7.785c1.136-0.575,6.525-3.427,10.636-7.785C60.72,78.567,68.5,71.5,68.5,53.5V43.5z"/><path fill="#fcba7f" d="M56.5,66.5c0-2.76-2.907-5-6.5-5s-6.5,2.24-6.5,5c0,2.76,2.907,5,6.5,5S56.5,69.26,56.5,66.5z"/><path fill="none" stroke="#1f212b" stroke-miterlimit="10" d="M56.5,66.5c0-2.76-2.907-5-6.5-5s-6.5,2.24-6.5,5 c0,2.76,2.907,5,6.5,5S56.5,69.26,56.5,66.5z"/><path fill="#fcba7f" d="M36.5,32.25c-1,0-2-1.75-5-1.75s-5,2-5,5c0,6,10,8,10,8V32.25z"/><path fill="none" stroke="#1f212b" stroke-miterlimit="10" d="M36.5,32.25c-1,0-2-1.75-5-1.75s-5,2-5,5c0,6,10,8,10,8V32.25z"/><path fill="#bb7a54" d="M31.5,33.5c-1.346,0-2,0.654-2,2c0,1.602,1.944,2.952,4,3.872v-5.246 C32.915,33.756,32.427,33.5,31.5,33.5z"/><path fill="none" stroke="#1f212b" stroke-miterlimit="10" d="M31.5,33.5c-1.346,0-2,0.654-2,2c0,1.602,1.944,2.952,4,3.872 v-5.246C32.915,33.756,32.427,33.5,31.5,33.5z"/><path fill="#fcba7f" d="M63.5,43.5c0,0,10-2,10-8c0-3-2-5-5-5s-4,1.75-5,1.75V43.5z"/><path fill="none" stroke="#1f212b" stroke-miterlimit="10" d="M63.5,43.5c0,0,10-2,10-8c0-3-2-5-5-5s-4,1.75-5,1.75V43.5z"/><path fill="#bb7a54" d="M66.5,34.126v5.246c2.056-0.92,4-2.271,4-3.872c0-1.346-0.654-2-2-2 C67.573,33.5,67.085,33.756,66.5,34.126z"/><path fill="none" stroke="#1f212b" stroke-miterlimit="10" d="M66.5,34.126v5.246c2.056-0.92,4-2.271,4-3.872 c0-1.346-0.654-2-2-2C67.573,33.5,67.085,33.756,66.5,34.126z"/><path fill="#eba272" d="M59.5,34.5c-6.446,0-12.554,0-19,0s-9,5.04-9,8c0,8,7.4,15,7.4,15h22.2c0,0,7.4-7,7.4-15 C68.5,39.54,65.946,34.5,59.5,34.5z"/><path fill="none" stroke="#1f212b" stroke-miterlimit="10" d="M59.5,34.5c-6.446,0-12.554,0-19,0s-9,5.04-9,8c0,8,7.4,15,7.4,15 h22.2c0,0,7.4-7,7.4-15C68.5,39.54,65.946,34.5,59.5,34.5z"/><path fill="#b07454" d="M40,35.5c6.5,0,6.5,9,6.5,9s-2.43,0-5.419,0c-7.581,0-7.581-9-7.581-9S37.011,35.5,40,35.5z"/><path fill="none" stroke="#1f212b" stroke-linejoin="round" stroke-miterlimit="10" d="M40,35.5c6.5,0,6.5,9,6.5,9s-2.43,0-5.419,0 c-7.581,0-7.581-9-7.581-9S37.011,35.5,40,35.5z"/><path fill="#b07454" d="M60,35.5c-6.5,0-6.5,9-6.5,9s2.43,0,5.419,0c7.581,0,7.581-9,7.581-9S62.989,35.5,60,35.5z"/><path fill="none" stroke="#1f212b" stroke-linejoin="round" stroke-miterlimit="10" d="M60,35.5c-6.5,0-6.5,9-6.5,9s2.43,0,5.419,0 c7.581,0,7.581-9,7.581-9S62.989,35.5,60,35.5z"/><path fill="#1f212b" d="M42 36A3 3 0 1 0 42 42 3 3 0 1 0 42 36zM58 36A3 3 0 1 0 58 42 3 3 0 1 0 58 36z"/><path fill="#fcba7f" d="M61,37.5c4.5,0,7.5,2.692,7.5,5c0-3.042-0.5-12-9.5-12c-6.62,0-9,3-9,3s-2.38-3-9-3 c-9,0-9.5,8.958-9.5,12c0-2.308,3-5,7.5-5c2.3,0,5,0.5,6.5,3.5c0,8.267-9,11.9-9,18.5c0,4.09,3.799,7,8,7c4.5,0,5.5-2,5.5-2 s1,2,5.5,2c4.201,0,8-2.91,8-7c0-6.6-9-10.233-9-18.5C56,38,58.7,37.5,61,37.5z"/><path fill="none" stroke="#1f212b" stroke-linejoin="round" stroke-miterlimit="10" d="M61,37.5c4.5,0,7.5,2.692,7.5,5 c0-3.042-0.5-12-9.5-12c-6.62,0-9,3-9,3s-2.38-3-9-3c-9,0-9.5,8.958-9.5,12c0-2.308,3-5,7.5-5c2.3,0,5,0.5,6.5,3.5 c0,8.267-9,11.9-9,18.5c0,4.09,3.799,7,8,7c4.5,0,5.5-2,5.5-2s1,2,5.5,2c4.201,0,8-2.91,8-7c0-6.6-9-10.233-9-18.5 C56,38,58.7,37.5,61,37.5z"/><path fill="#1f212b" d="M50,57c-2,0-3-1-5-1c-1,0-2,0.566-2,2c0,4,6,2,6,7h2c0-5,6-3.273,6-7c0-1.502-1-2-2-2 C53,56,52,57,50,57z"/><path fill="none" stroke="#1f212b" stroke-linejoin="round" stroke-miterlimit="10" stroke-width="2" d="M83,33.35 C83,14.546,66.557,13,61,13s-11,2-11,2s-5.443-2-11-2s-22,1.546-22,20.35c0,6.586,1.246,11.731,3,15.643c0,0-1,3.007-1,8.007 c0,19,20,26,20,26v-4c4.718,5.002,11,8,11,8s6.282-2.998,11-8v4c0,0,20-7,20-26c0-5-1-8-1-8C81.754,45.088,83,39.936,83,33.35z"/><path fill="#1f212b" d="M55.5,68c-2.744,0-4.453-0.674-5.5-1.406C48.953,67.326,47.244,68,44.5,68 c-0.374,0-0.741-0.024-1.104-0.062l0.207-1.989C43.898,65.979,44.196,66,44.5,66c2.943,0,4.267-0.883,4.793-1.41L50,63.884 l0.707,0.706C51.233,65.117,52.557,66,55.5,66c0.343,0,0.677-0.028,1.008-0.067l0.233,1.986C56.275,67.975,55.88,68,55.5,68z"/><path fill="none" stroke="#1f212b" stroke-linecap="round" stroke-miterlimit="10" d="M75.532 41.5c-.262-.352-.521-.689-.772-1M61.5 78v4.266c3.438-1.427 19-8.801 19-25.266 0-2.29-.215-4.161-.444-5.5-.105-.616-.21-1.12-.304-1.5-.492-2.001-1.32-3.857-2.255-5.5M22.506 44.5c-.935 1.645-1.766 3.499-2.258 5.5-.093.38-.199.884-.304 1.5C19.715 52.839 19.5 54.71 19.5 57c0 16.465 15.562 23.839 19 25.266V78M25.245 40.5c-.254.315-.513.644-.777 1"/></svg>