<?xml version="1.0" encoding="UTF-8"?>
<svg xmlns="http://www.w3.org/2000/svg" xmlns:xlink="http://www.w3.org/1999/xlink" width="64pt" height="64pt" viewBox="0 0 64 64" version="1.1">
<g id="surface26110685">
<path style=" stroke:none;fill-rule:nonzero;fill:rgb(98.823529%,95.686275%,89.803922%);fill-opacity:1;" d="M 59 22 C 59 8.746094 48.253906 1 35 1 C 21.945312 1 11.328125 9.480469 11.007812 22.398438 C 10.996094 22.796875 10.9375 23.191406 10.8125 23.566406 L 5.390625 39.824219 C 5.191406 40.429688 5.597656 41.066406 6.230469 41.136719 L 9.21875 41.46875 C 10.234375 41.582031 11 42.4375 11 43.457031 L 11 52.53125 C 11 54.914062 13.070312 56.769531 15.441406 56.507812 L 25 55.445312 L 24.300781 60.738281 C 24.140625 61.9375 25.074219 63 26.28125 63 L 52.777344 63 C 53.964844 63 54.890625 61.972656 54.765625 60.789062 L 53.328125 47.144531 C 53.175781 45.667969 53.429688 44.175781 54.078125 42.84375 C 57.164062 36.527344 59 29.429688 59 22 Z M 59 22 "/>
<path style=" stroke:none;fill-rule:nonzero;fill:rgb(100%,96.862745%,94.117647%);fill-opacity:1;" d="M 19.011719 10.695312 C 20.03125 11.714844 21.632812 11.867188 22.820312 11.046875 C 26.074219 8.800781 30.183594 7.539062 34.660156 7.539062 C 39.421875 7.539062 43.769531 8.800781 47.113281 11.148438 C 48.300781 11.980469 49.910156 11.828125 50.933594 10.804688 L 51.386719 10.351562 C 52.664062 9.070312 52.554688 6.929688 51.101562 5.851562 C 46.84375 2.695312 41.195312 1 35 1 C 28.921875 1 23.371094 2.839844 19.140625 6.109375 C 17.726562 7.203125 17.628906 9.316406 18.894531 10.582031 Z M 19.011719 10.695312 "/>
<path style=" stroke:none;fill-rule:nonzero;fill:rgb(68.235294%,77.254902%,85.098039%);fill-opacity:1;" d="M 49.238281 28.601562 L 45.070312 27.558594 C 44.859375 26.878906 44.578125 26.230469 44.25 25.609375 L 46.46875 21.921875 C 46.710938 21.519531 46.648438 21.019531 46.320312 20.691406 L 44.308594 18.679688 C 43.980469 18.351562 43.480469 18.289062 43.078125 18.53125 L 39.390625 20.75 C 38.769531 20.421875 38.121094 20.140625 37.441406 19.929688 L 36.398438 15.761719 C 36.28125 15.308594 35.878906 15 35.429688 15 L 32.570312 15 C 32.109375 15 31.710938 15.308594 31.601562 15.761719 L 30.558594 19.929688 C 29.878906 20.140625 29.230469 20.421875 28.609375 20.75 L 24.921875 18.53125 C 24.519531 18.289062 24.019531 18.351562 23.691406 18.679688 L 21.679688 20.691406 C 21.351562 21.019531 21.289062 21.519531 21.53125 21.921875 L 23.75 25.609375 C 23.421875 26.230469 23.140625 26.878906 22.929688 27.558594 L 18.761719 28.601562 C 18.308594 28.71875 18 29.121094 18 29.570312 L 18 32.429688 C 18 32.890625 18.308594 33.289062 18.761719 33.398438 L 22.929688 34.441406 C 23.140625 35.121094 23.421875 35.769531 23.75 36.390625 L 21.53125 40.078125 C 21.289062 40.480469 21.351562 40.980469 21.679688 41.308594 L 23.691406 43.320312 C 24.019531 43.648438 24.519531 43.710938 24.921875 43.46875 L 28.609375 41.25 C 29.230469 41.578125 29.878906 41.859375 30.558594 42.070312 L 31.601562 46.238281 C 31.710938 46.691406 32.109375 47 32.570312 47 L 35.429688 47 C 35.878906 47 36.28125 46.691406 36.398438 46.238281 L 37.441406 42.070312 C 38.121094 41.859375 38.769531 41.578125 39.390625 41.25 L 43.078125 43.46875 C 43.480469 43.710938 43.980469 43.648438 44.308594 43.320312 L 46.320312 41.308594 C 46.648438 40.980469 46.710938 40.480469 46.46875 40.078125 L 44.25 36.390625 C 44.578125 35.769531 44.859375 35.121094 45.070312 34.441406 L 49.238281 33.398438 C 49.691406 33.289062 50 32.890625 50 32.429688 L 50 29.570312 C 50 29.121094 49.691406 28.71875 49.238281 28.601562 Z M 34 35 C 31.789062 35 30 33.210938 30 31 C 30 28.789062 31.789062 27 34 27 C 36.210938 27 38 28.789062 38 31 C 38 33.210938 36.210938 35 34 35 Z M 34 35 "/>
<path style=" stroke:none;fill-rule:nonzero;fill:rgb(82.745098%,86.666667%,92.941176%);fill-opacity:1;" d="M 45.671875 35.011719 C 45.488281 35.601562 45.25 36.171875 44.960938 36.710938 L 46 41 L 44 44 L 38.699219 41.96875 C 38.160156 42.261719 37.589844 42.5 37 42.679688 L 36 47 L 32 47 L 31.648438 43.351562 L 47 28 L 50 29 L 50 34 Z M 46 22 C 45.980469 23.351562 44.929688 25.800781 45 26 L 29 42 C 28.578125 41.851562 24 44 24 44 L 23 42 L 31.171875 33.828125 C 31.898438 34.550781 32.898438 35 34 35 C 36.210938 35 38 33.210938 38 31 C 38 29.898438 37.550781 28.898438 36.828125 28.171875 L 45 20 C 45 20 46.019531 20.460938 46 22 Z M 24.609375 36.390625 L 22.449219 33.550781 L 36.539062 19.460938 C 36.539062 19.460938 39.460938 20.710938 40 21 Z M 24.609375 36.390625 "/>
<path style=" stroke:none;fill-rule:nonzero;fill:rgb(26.666667%,23.529412%,28.235294%);fill-opacity:1;" d="M 35 9 C 35.554688 9 36 8.550781 36 8 L 36 6 C 36 5.449219 35.554688 5 35 5 C 34.445312 5 34 5.449219 34 6 L 34 8 C 34 8.550781 34.445312 9 35 9 Z M 28.988281 8.921875 C 29.105469 9.371094 29.511719 9.664062 29.953125 9.664062 C 30.039062 9.664062 30.125 9.652344 30.210938 9.628906 C 30.746094 9.488281 31.0625 8.9375 30.917969 8.40625 L 30.402344 6.472656 C 30.257812 5.9375 29.710938 5.621094 29.175781 5.765625 C 28.644531 5.910156 28.324219 6.457031 28.46875 6.992188 Z M 44.25 11.480469 C 44.40625 11.570312 44.578125 11.613281 44.75 11.613281 C 45.09375 11.613281 45.429688 11.433594 45.617188 11.113281 L 46.617188 9.382812 C 46.890625 8.902344 46.726562 8.289062 46.25 8.015625 C 45.773438 7.738281 45.160156 7.902344 44.882812 8.382812 L 43.882812 10.113281 C 43.605469 10.589844 43.769531 11.203125 44.25 11.480469 Z M 24.382812 11.113281 C 24.570312 11.433594 24.90625 11.613281 25.25 11.613281 C 25.421875 11.613281 25.59375 11.570312 25.75 11.476562 C 26.230469 11.203125 26.394531 10.589844 26.117188 10.113281 L 25.117188 8.378906 C 24.839844 7.902344 24.226562 7.738281 23.75 8.015625 C 23.269531 8.289062 23.105469 8.902344 23.382812 9.378906 Z M 39.789062 9.628906 C 39.875 9.652344 39.960938 9.664062 40.046875 9.664062 C 40.488281 9.664062 40.894531 9.371094 41.011719 8.921875 L 41.53125 6.992188 C 41.675781 6.457031 41.355469 5.910156 40.824219 5.765625 C 40.292969 5.621094 39.742188 5.941406 39.597656 6.472656 L 39.082031 8.40625 C 38.9375 8.9375 39.253906 9.488281 39.789062 9.628906 Z M 39.789062 9.628906 "/>
<path style=" stroke:none;fill-rule:nonzero;fill:rgb(26.666667%,23.529412%,28.235294%);fill-opacity:1;" d="M 54.980469 43.28125 C 58.265625 36.554688 60 29.195312 60 22 C 60 9.046875 49.71875 0 35 0 C 20.839844 0 10.328125 9.410156 10.007812 22.375 C 10 22.6875 9.949219 22.984375 9.863281 23.25 L 4.441406 39.507812 C 4.25 40.085938 4.328125 40.707031 4.652344 41.21875 C 4.980469 41.730469 5.515625 42.0625 6.117188 42.128906 L 9.109375 42.464844 C 9.617188 42.519531 10 42.945312 10 43.457031 L 10 52.53125 C 10 53.949219 10.605469 55.308594 11.664062 56.257812 C 12.726562 57.203125 14.144531 57.660156 15.550781 57.5 L 18.449219 57.179688 C 18.453125 57.179688 18.453125 57.179688 18.453125 57.179688 L 23.839844 56.578125 L 23.308594 60.605469 C 23.195312 61.464844 23.457031 62.328125 24.027344 62.976562 C 24.59375 63.628906 25.417969 64 26.28125 64 L 52.777344 64 C 53.628906 64 54.4375 63.636719 55.007812 63.007812 C 55.574219 62.375 55.851562 61.53125 55.761719 60.6875 L 54.324219 47.039062 C 54.1875 45.738281 54.414062 44.4375 54.980469 43.28125 Z M 53.519531 61.667969 C 53.328125 61.882812 53.066406 62 52.777344 62 L 26.28125 62 C 25.988281 62 25.722656 61.878906 25.53125 61.660156 C 25.339844 61.4375 25.253906 61.160156 25.289062 60.867188 L 25.890625 56.351562 L 29.109375 55.992188 C 29.660156 55.933594 30.054688 55.4375 29.992188 54.890625 C 29.933594 54.339844 29.449219 53.941406 28.890625 54.007812 L 26.160156 54.308594 L 15.332031 55.511719 C 14.480469 55.605469 13.636719 55.335938 13 54.765625 C 12.363281 54.195312 12 53.382812 12 52.53125 L 12 43.457031 C 12 41.925781 10.851562 40.644531 9.332031 40.476562 L 6.339844 40.144531 L 11.761719 23.882812 C 11.910156 23.425781 11.996094 22.9375 12.007812 22.425781 C 12.300781 10.589844 21.96875 2 35 2 C 50.890625 2 58 12.046875 58 22 C 58 28.890625 56.335938 35.945312 53.183594 42.402344 C 52.453125 43.898438 52.160156 45.574219 52.335938 47.246094 L 53.773438 60.894531 C 53.804688 61.179688 53.714844 61.457031 53.519531 61.667969 Z M 53.519531 61.667969 "/>
<path style=" stroke:none;fill-rule:nonzero;fill:rgb(26.666667%,23.529412%,28.235294%);fill-opacity:1;" d="M 49.484375 27.632812 L 45.839844 26.722656 C 45.710938 26.367188 45.558594 26.011719 45.394531 25.660156 L 47.328125 22.429688 C 47.804688 21.644531 47.679688 20.636719 47.027344 19.988281 L 45.011719 17.96875 C 44.359375 17.320312 43.355469 17.199219 42.570312 17.671875 L 39.339844 19.605469 C 38.988281 19.441406 38.632812 19.292969 38.277344 19.160156 L 37.367188 15.515625 C 37.144531 14.621094 36.347656 14 35.425781 14 L 32.574219 14 C 31.652344 14 30.855469 14.621094 30.632812 15.515625 L 29.722656 19.160156 C 29.367188 19.289062 29.011719 19.441406 28.660156 19.605469 L 25.429688 17.667969 C 24.640625 17.195312 23.636719 17.320312 22.988281 17.96875 L 20.972656 19.988281 C 20.320312 20.636719 20.195312 21.640625 20.671875 22.429688 L 22.605469 25.65625 C 22.441406 26.011719 22.289062 26.367188 22.160156 26.722656 L 18.515625 27.632812 C 17.621094 27.855469 17 28.65625 17 29.574219 L 17 32.425781 C 17 33.347656 17.621094 34.144531 18.515625 34.367188 L 22.160156 35.277344 C 22.289062 35.632812 22.4375 35.988281 22.605469 36.34375 L 20.667969 39.570312 C 20.195312 40.359375 20.320312 41.363281 20.96875 42.011719 L 22.984375 44.027344 C 23.636719 44.679688 24.640625 44.804688 25.429688 44.328125 L 28.65625 42.394531 C 29.011719 42.558594 29.367188 42.707031 29.722656 42.839844 L 30.632812 46.484375 C 30.855469 47.378906 31.652344 48 32.574219 48 L 35.425781 48 C 36.347656 48 37.144531 47.378906 37.367188 46.484375 L 38.277344 42.839844 C 38.632812 42.710938 38.988281 42.558594 39.339844 42.394531 L 42.570312 44.332031 C 43.355469 44.804688 44.359375 44.679688 45.011719 44.03125 L 47.03125 42.011719 C 47.679688 41.363281 47.800781 40.359375 47.328125 39.570312 L 45.394531 36.34375 C 45.558594 35.988281 45.707031 35.632812 45.839844 35.277344 L 49.484375 34.367188 C 50.378906 34.144531 51 33.347656 51 32.425781 L 51 29.574219 C 51 28.65625 50.378906 27.855469 49.484375 27.632812 Z M 49 32.425781 L 44.824219 33.46875 C 44.484375 33.554688 44.214844 33.808594 44.109375 34.144531 C 43.929688 34.730469 43.679688 35.328125 43.367188 35.921875 C 43.207031 36.230469 43.21875 36.601562 43.394531 36.898438 L 45.613281 40.597656 L 43.597656 42.613281 L 39.898438 40.394531 C 39.601562 40.21875 39.230469 40.207031 38.921875 40.367188 C 38.332031 40.675781 37.734375 40.925781 37.144531 41.113281 C 36.808594 41.214844 36.554688 41.484375 36.472656 41.824219 L 35.425781 46 L 32.574219 46 L 31.527344 41.824219 C 31.445312 41.484375 31.1875 41.214844 30.855469 41.113281 C 30.261719 40.929688 29.664062 40.679688 29.078125 40.367188 C 28.933594 40.292969 28.773438 40.253906 28.613281 40.253906 C 28.433594 40.253906 28.257812 40.300781 28.097656 40.398438 L 24.402344 42.617188 L 22.382812 40.597656 L 24.601562 36.902344 C 24.78125 36.601562 24.792969 36.230469 24.628906 35.921875 C 24.320312 35.328125 24.070312 34.730469 23.886719 34.144531 C 23.785156 33.8125 23.515625 33.554688 23.175781 33.472656 L 19 32.425781 L 19 29.574219 L 23.175781 28.53125 C 23.515625 28.445312 23.785156 28.1875 23.890625 27.855469 C 24.070312 27.269531 24.320312 26.671875 24.632812 26.078125 C 24.792969 25.769531 24.78125 25.398438 24.605469 25.097656 L 22.386719 21.402344 L 24.402344 19.382812 L 28.101562 21.601562 C 28.402344 21.78125 28.773438 21.792969 29.078125 21.628906 C 29.667969 21.320312 30.265625 21.070312 30.855469 20.886719 C 31.1875 20.785156 31.445312 20.515625 31.527344 20.175781 L 32.574219 16 L 35.425781 16 L 36.472656 20.175781 C 36.554688 20.515625 36.8125 20.785156 37.144531 20.886719 C 37.734375 21.070312 38.332031 21.320312 38.921875 21.632812 C 39.230469 21.792969 39.601562 21.78125 39.898438 21.601562 L 43.597656 19.382812 L 45.613281 21.402344 L 43.394531 25.101562 C 43.214844 25.398438 43.207031 25.769531 43.367188 26.078125 C 43.679688 26.671875 43.929688 27.269531 44.109375 27.855469 C 44.214844 28.191406 44.484375 28.445312 44.824219 28.53125 L 49 29.574219 Z M 49 32.425781 "/>
<path style=" stroke:none;fill-rule:nonzero;fill:rgb(26.666667%,23.529412%,28.235294%);fill-opacity:1;" d="M 34 26 C 31.242188 26 29 28.242188 29 31 C 29 33.757812 31.242188 36 34 36 C 36.757812 36 39 33.757812 39 31 C 39 28.242188 36.757812 26 34 26 Z M 34 34 C 32.347656 34 31 32.652344 31 31 C 31 29.347656 32.347656 28 34 28 C 35.652344 28 37 29.347656 37 31 C 37 32.652344 35.652344 34 34 34 Z M 34 34 "/>
</g>
</svg>
