<svg xmlns="http://www.w3.org/2000/svg" viewBox="0 0 100 100" width="100px" height="100px"><circle cx="48.5" cy="57.5" r="32.5" fill="#a3a3cd"/><circle cx="48.5" cy="57.5" r="27.5" fill="#fefdef"/><path fill="#1f212b" d="M48.5,91C30.028,91,15,75.972,15,57.5S30.028,24,48.5,24S82,39.028,82,57.5S66.972,91,48.5,91z M48.5,26C31.131,26,17,40.131,17,57.5S31.131,89,48.5,89S80,74.869,80,57.5S65.869,26,48.5,26z"/><path fill="#1f212b" d="M48.5,36c-0.276,0-0.5-0.224-0.5-0.5v-5c0-0.276,0.224-0.5,0.5-0.5s0.5,0.224,0.5,0.5v5	C49,35.776,48.776,36,48.5,36z"/><path fill="#1f212b" d="M31.529,41.029c-0.128,0-0.256-0.049-0.354-0.146l-2.121-2.121c-0.195-0.195-0.195-0.512,0-0.707	s0.512-0.195,0.707,0l2.121,2.121c0.195,0.195,0.195,0.512,0,0.707C31.785,40.98,31.657,41.029,31.529,41.029z"/><path fill="#1f212b" d="M26.5,58h-5c-0.276,0-0.5-0.224-0.5-0.5s0.224-0.5,0.5-0.5h5c0.276,0,0.5,0.224,0.5,0.5	S26.776,58,26.5,58z"/><path fill="#1f212b" d="M29.408,77.092c-0.128,0-0.256-0.049-0.354-0.146c-0.195-0.195-0.195-0.512,0-0.707l2.121-2.121	c0.195-0.195,0.512-0.195,0.707,0s0.195,0.512,0,0.707l-2.121,2.121C29.664,77.043,29.536,77.092,29.408,77.092z"/><path fill="#1f212b" d="M48.5,85c-0.276,0-0.5-0.224-0.5-0.5v-5c0-0.276,0.224-0.5,0.5-0.5s0.5,0.224,0.5,0.5v5	C49,84.776,48.776,85,48.5,85z"/><path fill="#1f212b" d="M67.592,77.092c-0.128,0-0.256-0.049-0.354-0.146l-2.121-2.121c-0.195-0.195-0.195-0.512,0-0.707	s0.512-0.195,0.707,0l2.121,2.121c0.195,0.195,0.195,0.512,0,0.707C67.848,77.043,67.72,77.092,67.592,77.092z"/><path fill="#1f212b" d="M75.5,58h-5c-0.276,0-0.5-0.224-0.5-0.5s0.224-0.5,0.5-0.5h5c0.276,0,0.5,0.224,0.5,0.5	S75.776,58,75.5,58z"/><path fill="#1f212b" d="M65.471,41.029c-0.128,0-0.256-0.049-0.354-0.146c-0.195-0.195-0.195-0.512,0-0.707l2.121-2.121	c0.195-0.195,0.512-0.195,0.707,0s0.195,0.512,0,0.707l-2.121,2.121C65.727,40.98,65.599,41.029,65.471,41.029z"/><path fill="#1f212b" d="M48.5,85C33.336,85,21,72.664,21,57.5S33.336,30,48.5,30c10.027,0,19.263,5.464,24.104,14.259	c0.133,0.242,0.045,0.546-0.197,0.679c-0.243,0.133-0.547,0.045-0.679-0.197C67.063,36.265,58.162,31,48.5,31	C33.888,31,22,42.888,22,57.5S33.888,84,48.5,84S75,72.112,75,57.5c0-0.591-0.025-1.215-0.08-1.963	c-0.021-0.275,0.187-0.515,0.462-0.535c0.286-0.016,0.515,0.187,0.535,0.462C75.974,56.237,76,56.884,76,57.5	C76,72.664,63.664,85,48.5,85z"/><path fill="#1f212b" d="M75.024,53c-0.236,0-0.445-0.167-0.491-0.407c-0.144-0.76-0.283-1.384-0.438-1.963	c-0.071-0.267,0.087-0.541,0.354-0.612c0.266-0.07,0.542,0.087,0.612,0.354c0.162,0.604,0.307,1.252,0.455,2.037	c0.051,0.271-0.127,0.533-0.398,0.584C75.086,52.997,75.055,53,75.024,53z"/><path fill="#7783ad" d="M50.5,24.5h-4c-1.105,0-2-0.895-2-2v-1c0-1.105,0.895-2,2-2h4c1.105,0,2,0.895,2,2v1	C52.5,23.605,51.605,24.5,50.5,24.5z"/><path fill="#1f212b" d="M50.5,25h-4c-1.378,0-2.5-1.122-2.5-2.5v-1c0-1.378,1.122-2.5,2.5-2.5h4c1.378,0,2.5,1.122,2.5,2.5v1	C53,23.878,51.878,25,50.5,25z M46.5,20c-0.827,0-1.5,0.673-1.5,1.5v1c0,0.827,0.673,1.5,1.5,1.5h4c0.827,0,1.5-0.673,1.5-1.5v-1	c0-0.827-0.673-1.5-1.5-1.5H46.5z"/><path fill="#ceccbe" d="M62.31,56.576c-0.006-0.002-0.011-0.004-0.017-0.005l-7.352-2.167l1.947-3.894	c0.204-0.408,0.127-0.88-0.195-1.202c-0.322-0.323-0.793-0.399-1.202-0.195l-6.99,3.495l-6.99-3.495	c-0.409-0.204-0.881-0.127-1.202,0.195c-0.323,0.322-0.399,0.794-0.195,1.202l1.947,3.894l-7.369,2.172	c-0.381,0.127-0.639,0.45-0.689,0.863c-0.005,0.04-0.005,0.081,0,0.121c0.05,0.414,0.308,0.736,0.706,0.869l7.352,2.167	l-1.947,3.894c-0.204,0.408-0.127,0.88,0.195,1.202s0.793,0.398,1.202,0.195l6.99-3.495l6.99,3.495	c0.409,0.203,0.88,0.127,1.202-0.195c0.323-0.322,0.399-0.794,0.195-1.202l-1.947-3.894l7.369-2.172	c0.381-0.127,0.639-0.45,0.689-0.863c0.005-0.04,0.005-0.081,0-0.121C62.948,57.026,62.69,56.703,62.31,56.576z"/><path fill="#1f212b" d="M52.191,20.94c-0.167,0-0.33-0.083-0.425-0.236c-0.146-0.234-0.074-0.542,0.16-0.688	C53.851,18.817,55,16.755,55,14.5c0-3.584-2.916-6.5-6.5-6.5S42,10.916,42,14.5c0,2.255,1.149,4.317,3.074,5.516	c0.234,0.146,0.306,0.454,0.16,0.688c-0.146,0.235-0.455,0.306-0.688,0.16C42.325,19.482,41,17.103,41,14.5	c0-4.136,3.364-7.5,7.5-7.5s7.5,3.364,7.5,7.5c0,2.603-1.325,4.982-3.545,6.365C52.373,20.916,52.281,20.94,52.191,20.94z"/><path fill="#f37e98" d="M51.491,57.316c0.012,0.127,0.012,0.241,0,0.368c-0.169,1.761-1.495,15.573-1.502,15.615	C49.874,73.983,49.228,74.5,48.5,74.5h-0.001c-0.728,0-1.374-0.517-1.489-1.201c-0.007-0.043-1.333-13.854-1.502-15.615	c-0.012-0.127-0.012-0.241,0-0.368c0.169-1.761,1.495-15.573,1.502-15.615c0.115-0.684,0.761-1.201,1.489-1.201H48.5	c0.728,0,1.374,0.517,1.489,1.201C49.996,41.743,51.322,55.555,51.491,57.316z"/><path fill="#78a1d1" d="M45.508,57.5c0,0.06-0.006,0.121,0,0.184c0.169,1.761,1.495,15.573,1.502,15.615	c0.115,0.684,0.761,1.201,1.489,1.201H48.5c0.728,0,1.374-0.517,1.489-1.201c0.007-0.043,1.333-13.854,1.502-15.615	c0.006-0.063,0-0.124,0-0.184H45.508z"/><path fill="#1f212b" d="M48.5,75c-0.975,0-1.828-0.695-1.983-1.618c-0.003-0.018-0.011-0.066-1.506-15.65	c-0.016-0.16-0.016-0.304,0-0.464c1.495-15.584,1.503-15.633,1.507-15.651C46.672,40.695,47.524,40,48.499,40	c0.975,0,1.828,0.695,1.983,1.618c0.003,0.018,0.011,0.066,1.506,15.65c0.016,0.16,0.016,0.304,0,0.464	c-1.495,15.584-1.503,15.633-1.507,15.651C50.327,74.305,49.475,75,48.5,75z M48.5,41c-0.485,0-0.923,0.344-0.997,0.784	c-0.021,0.198-1.206,12.538-1.498,15.58c-0.009,0.094-0.009,0.179,0,0.272c0.292,3.042,1.477,15.382,1.501,15.606	C47.577,73.656,48.015,74,48.499,74c0.485,0,0.923-0.344,0.997-0.784c0.021-0.198,1.206-12.538,1.498-15.58	c0.009-0.094,0.009-0.179,0-0.272l0,0c-0.292-3.042-1.477-15.382-1.501-15.606C49.422,41.344,48.984,41,48.5,41z"/><path fill="#1f212b" d="M48.5,59c-0.827,0-1.5-0.673-1.5-1.5s0.673-1.5,1.5-1.5s1.5,0.673,1.5,1.5S49.327,59,48.5,59z"/><path fill="#1f212b" d="M55.961,66c-0.158,0-0.319-0.037-0.471-0.113l-2.823-1.411c-0.247-0.124-0.347-0.424-0.224-0.671	c0.123-0.247,0.424-0.347,0.671-0.224l2.823,1.411l-2.158-4.484c-0.066-0.132-0.07-0.287-0.011-0.423s0.175-0.239,0.317-0.28	l7.925-2.336l-7.925-2.276c-0.142-0.042-0.258-0.145-0.317-0.28s-0.055-0.291,0.011-0.423l2.214-4.428l-2.879,1.355	c-0.248,0.123-0.548,0.023-0.671-0.224c-0.124-0.247-0.023-0.547,0.224-0.671l2.823-1.411c0.409-0.204,0.88-0.127,1.202,0.195	c0.323,0.322,0.399,0.794,0.195,1.202l-1.947,3.894l7.352,2.167c0.397,0.132,0.655,0.455,0.706,0.869	c0.005,0.04,0.005,0.081,0,0.121c-0.05,0.414-0.308,0.736-0.689,0.863l-7.369,2.172l1.947,3.894c0.204,0.408,0.127,0.88-0.195,1.202	C56.49,65.895,56.229,66,55.961,66z"/><path fill="#1f212b" d="M41.039,66c-0.268,0-0.529-0.105-0.731-0.308c-0.323-0.322-0.399-0.794-0.195-1.202l1.947-3.894	l-7.352-2.167c-0.397-0.132-0.655-0.455-0.706-0.869c-0.005-0.04-0.005-0.081,0-0.121c0.05-0.414,0.308-0.736,0.689-0.863	l7.369-2.172l-1.947-3.894c-0.204-0.408-0.127-0.88,0.195-1.202c0.321-0.322,0.793-0.399,1.202-0.195l2.822,1.411	c0.247,0.124,0.347,0.424,0.224,0.671c-0.125,0.247-0.424,0.347-0.671,0.224l-2.822-1.411l2.158,4.484	c0.066,0.132,0.07,0.287,0.011,0.423s-0.175,0.239-0.317,0.28L34.99,57.53l7.925,2.276c0.142,0.042,0.258,0.145,0.317,0.28	s0.055,0.291-0.011,0.423l-2.214,4.428l2.878-1.355c0.247-0.124,0.546-0.023,0.671,0.224c0.124,0.247,0.023,0.547-0.224,0.671	l-2.822,1.411C41.358,65.963,41.197,66,41.039,66z"/></svg>