<?xml version="1.0" encoding="UTF-8"?>
<svg xmlns="http://www.w3.org/2000/svg" xmlns:xlink="http://www.w3.org/1999/xlink" width="100pt" height="100pt" viewBox="0 0 100 100" version="1.1">
<g id="surface365614">
<path style=" stroke:none;fill-rule:nonzero;fill:rgb(40%,69.411765%,89.019608%);fill-opacity:1;" d="M 50 15 C 30.671875 15 15 30.671875 15 50 C 15 69.328125 30.671875 85 50 85 C 69.328125 85 85 69.328125 85 50 C 85 30.671875 69.328125 15 50 15 Z M 50 15 "/>
<path style=" stroke:none;fill-rule:nonzero;fill:rgb(99.607843%,99.215686%,93.72549%);fill-opacity:1;" d="M 64 47.5 L 52.5 47.5 L 52.5 35 C 52.5 33.617188 51.382812 32.5 50 32.5 C 48.617188 32.5 47.5 33.617188 47.5 35 L 47.5 47.5 L 36 47.5 C 34.617188 47.5 33.5 48.617188 33.5 50 C 33.5 51.382812 34.617188 52.5 36 52.5 L 47.5 52.5 L 47.5 65 C 47.5 66.382812 48.617188 67.5 50 67.5 C 51.382812 67.5 52.5 66.382812 52.5 65 L 52.5 52.5 L 64 52.5 C 65.382812 52.5 66.5 51.382812 66.5 50 C 66.5 48.617188 65.382812 47.5 64 47.5 Z M 64 47.5 "/>
<path style="fill:none;stroke-width:3.44;stroke-linecap:butt;stroke-linejoin:miter;stroke:rgb(12.156863%,12.941176%,16.862745%);stroke-opacity:1;stroke-miterlimit:10;" d="M 86 25.8 C 52.755625 25.8 25.8 52.755625 25.8 86 C 25.8 119.244375 52.755625 146.2 86 146.2 C 119.244375 146.2 146.2 119.244375 146.2 86 C 146.2 52.755625 119.244375 25.8 86 25.8 Z M 86 25.8 " transform="matrix(0.581395,0,0,0.581395,0,0)"/>
<path style="fill:none;stroke-width:1;stroke-linecap:round;stroke-linejoin:round;stroke:rgb(12.156863%,12.941176%,16.862745%);stroke-opacity:1;stroke-miterlimit:10;" d="M 112.66 40.809688 C 111.537969 40.15125 110.389062 39.526406 109.22 38.948594 M 117.82 44.29 C 117.255625 43.853281 116.684531 43.436719 116.1 43.026875 M 104.06 36.731406 C 98.429688 34.66875 92.349219 33.54 86 33.54 C 57.02875 33.54 33.54 57.02875 33.54 86 C 33.54 114.97125 57.02875 138.46 86 138.46 C 114.97125 138.46 138.46 114.97125 138.46 86 C 138.46 70.600625 131.828594 56.753281 121.26 47.158906 " transform="matrix(0.581395,0,0,0.581395,0,0)"/>
<path style="fill:none;stroke-width:1;stroke-linecap:butt;stroke-linejoin:miter;stroke:rgb(12.156863%,12.941176%,16.862745%);stroke-opacity:1;stroke-miterlimit:10;" d="M 110.08 81.7 L 90.3 81.7 L 90.3 60.2 C 90.3 57.821562 88.378438 55.9 86 55.9 C 83.621562 55.9 81.7 57.821562 81.7 60.2 L 81.7 81.7 L 61.92 81.7 C 59.541562 81.7 57.62 83.621562 57.62 86 C 57.62 88.378438 59.541562 90.3 61.92 90.3 L 81.7 90.3 L 81.7 111.8 C 81.7 114.178438 83.621562 116.1 86 116.1 C 88.378438 116.1 90.3 114.178438 90.3 111.8 L 90.3 90.3 L 110.08 90.3 C 112.458438 90.3 114.38 88.378438 114.38 86 C 114.38 83.621562 112.458438 81.7 110.08 81.7 Z M 110.08 81.7 " transform="matrix(0.581395,0,0,0.581395,0,0)"/>
</g>
</svg>
