<?xml version="1.0" encoding="UTF-8"?>
<svg xmlns="http://www.w3.org/2000/svg" xmlns:xlink="http://www.w3.org/1999/xlink" width="64pt" height="64pt" viewBox="0 0 64 64" version="1.1">
<g id="surface718931">
<path style=" stroke:none;fill-rule:nonzero;fill:rgb(100%,100%,100%);fill-opacity:1;" d="M 59.660156 22 C 59.660156 8.746094 48.914062 1 35.660156 1 C 22.605469 1 11.988281 9.480469 11.667969 22.398438 C 11.65625 22.796875 11.597656 23.191406 11.472656 23.566406 L 6.050781 39.824219 C 5.851562 40.429688 6.257812 41.066406 6.890625 41.136719 L 9.882812 41.46875 C 10.894531 41.582031 11.660156 42.4375 11.660156 43.457031 L 11.660156 52.53125 C 11.660156 54.914062 13.730469 56.769531 16.101562 56.507812 L 25.660156 55.445312 L 24.960938 60.738281 C 24.800781 61.9375 25.734375 63 26.941406 63 L 53.4375 63 C 54.625 63 55.550781 61.972656 55.429688 60.789062 L 53.992188 47.144531 C 53.835938 45.667969 54.089844 44.175781 54.742188 42.84375 C 57.824219 36.527344 59.660156 29.429688 59.660156 22 Z M 59.660156 22 "/>
<path style=" stroke:none;fill-rule:nonzero;fill:rgb(100%,100%,100%);fill-opacity:1;" d="M 41.195312 36.402344 C 39.554688 38.589844 36.941406 40 34 40 C 29.027344 40 25 35.972656 25 31 C 25 26.027344 29.027344 22 34 22 C 37.121094 22 39.867188 23.589844 41.480469 26 L 41.910156 26.609375 L 36.78125 29.875 L 50.242188 31.242188 L 49.121094 17.394531 L 46.089844 22.15625 C 43.367188 18.429688 38.972656 16 34 16 C 25.714844 16 19 22.714844 19 31 C 19 39.285156 25.714844 46 34 46 C 39.359375 46 44.054688 43.1875 46.699219 38.960938 C 44.535156 37.863281 42.945312 37.195312 41.195312 36.402344 Z M 41.195312 36.402344 "/>
<path style=" stroke:none;fill-rule:nonzero;fill:rgb(36.470588%,73.72549%,61.568627%);fill-opacity:1;" d="M 50.589844 31.550781 L 45.308594 30.738281 L 45.238281 30.730469 L 36.78125 29.871094 L 41.910156 26.609375 L 41.480469 26 C 39.855469 23.570312 37.074219 21.976562 33.925781 22 C 29.15625 22.039062 25.132812 25.988281 25.003906 30.753906 C 24.867188 35.835938 28.949219 40 34 40 C 36.941406 40 39.550781 38.589844 41.191406 36.398438 C 41.199219 36.402344 41.210938 36.410156 41.21875 36.414062 C 42.734375 37.105469 42.984375 39.125 41.707031 40.195312 C 39.496094 42.054688 36.609375 43.128906 33.457031 42.988281 C 27.324219 42.722656 22.265625 37.648438 22.011719 31.515625 C 21.722656 24.652344 27.199219 19 34 19 C 37.46875 19 40.609375 20.480469 42.800781 22.839844 L 42.800781 22.851562 L 43.121094 23.199219 Z M 50.589844 31.550781 "/>
<path style=" stroke:none;fill-rule:nonzero;fill:rgb(100%,96.862745%,94.117647%);fill-opacity:1;" d="M 19.671875 10.695312 C 20.691406 11.714844 22.292969 11.867188 23.480469 11.046875 C 26.738281 8.800781 30.847656 7.539062 35.320312 7.539062 C 40.082031 7.539062 44.429688 8.800781 47.773438 11.148438 C 48.960938 11.980469 50.570312 11.828125 51.59375 10.804688 L 52.046875 10.351562 C 53.324219 9.070312 53.214844 6.929688 51.761719 5.851562 C 47.503906 2.695312 41.855469 1 35.660156 1 C 29.582031 1 24.03125 2.839844 19.800781 6.109375 C 18.386719 7.203125 18.289062 9.316406 19.554688 10.582031 Z M 19.671875 10.695312 "/>
<path style=" stroke:none;fill-rule:nonzero;fill:rgb(16.862745%,24.705882%,32.941176%);fill-opacity:1;" d="M 35 9 C 35.550781 9 36 8.550781 36 8 L 36 6 C 36 5.449219 35.550781 5 35 5 C 34.449219 5 34 5.449219 34 6 L 34 8 C 34 8.550781 34.449219 9 35 9 Z M 28.988281 8.921875 C 29.105469 9.371094 29.511719 9.664062 29.953125 9.664062 C 30.035156 9.664062 30.125 9.652344 30.210938 9.628906 C 30.742188 9.488281 31.0625 8.9375 30.917969 8.40625 L 30.398438 6.472656 C 30.257812 5.941406 29.710938 5.621094 29.175781 5.765625 C 28.640625 5.910156 28.324219 6.457031 28.46875 6.992188 Z M 44.25 11.480469 C 44.40625 11.570312 44.578125 11.613281 44.75 11.613281 C 45.09375 11.613281 45.429688 11.433594 45.617188 11.113281 L 46.617188 9.382812 C 46.890625 8.902344 46.726562 8.289062 46.25 8.015625 C 45.769531 7.738281 45.160156 7.902344 44.882812 8.382812 L 43.882812 10.113281 C 43.609375 10.589844 43.769531 11.203125 44.25 11.480469 Z M 24.382812 11.113281 C 24.570312 11.433594 24.90625 11.613281 25.25 11.613281 C 25.421875 11.613281 25.59375 11.570312 25.75 11.476562 C 26.230469 11.203125 26.390625 10.589844 26.117188 10.113281 L 25.117188 8.378906 C 24.839844 7.902344 24.226562 7.738281 23.75 8.015625 C 23.269531 8.289062 23.109375 8.902344 23.382812 9.378906 Z M 39.789062 9.628906 C 39.875 9.652344 39.960938 9.664062 40.046875 9.664062 C 40.488281 9.664062 40.894531 9.371094 41.011719 8.921875 L 41.53125 6.992188 C 41.671875 6.457031 41.355469 5.910156 40.824219 5.765625 C 40.285156 5.621094 39.738281 5.941406 39.597656 6.472656 L 39.078125 8.40625 C 38.9375 8.9375 39.253906 9.488281 39.789062 9.628906 Z M 39.789062 9.628906 "/>
<path style=" stroke:none;fill-rule:nonzero;fill:rgb(16.862745%,24.705882%,32.941176%);fill-opacity:1;" d="M 54.980469 43.28125 C 58.265625 36.554688 60 29.195312 60 22 C 60 9.046875 49.71875 0 35 0 C 20.839844 0 10.328125 9.410156 10.007812 22.375 C 10 22.691406 9.949219 22.984375 9.863281 23.25 L 4.441406 39.511719 C 4.25 40.085938 4.328125 40.710938 4.65625 41.222656 C 4.980469 41.730469 5.515625 42.0625 6.117188 42.132812 L 9.109375 42.464844 C 9.617188 42.519531 10 42.945312 10 43.457031 L 10 52.53125 C 10 55.472656 12.554688 57.835938 15.550781 57.5 L 18.449219 57.179688 C 18.453125 57.179688 18.453125 57.179688 18.453125 57.179688 L 23.839844 56.578125 L 23.308594 60.605469 C 23.195312 61.460938 23.457031 62.328125 24.023438 62.976562 C 24.59375 63.628906 25.417969 64 26.28125 64 L 52.777344 64 C 53.628906 64 54.441406 63.636719 55.007812 63.007812 C 55.574219 62.375 55.851562 61.53125 55.761719 60.6875 L 54.324219 47.039062 C 54.1875 45.738281 54.414062 44.4375 54.980469 43.28125 Z M 53.519531 61.667969 C 53.328125 61.882812 53.066406 62 52.777344 62 L 26.28125 62 C 25.988281 62 25.722656 61.878906 25.53125 61.660156 C 25.339844 61.4375 25.253906 61.160156 25.289062 60.867188 L 25.890625 56.351562 L 29.109375 55.992188 C 29.660156 55.933594 30.054688 55.4375 29.992188 54.890625 C 29.933594 54.339844 29.4375 53.9375 28.890625 54.007812 L 26.160156 54.308594 L 15.332031 55.511719 C 13.527344 55.703125 12 54.296875 12 52.53125 L 12 43.457031 C 12 41.925781 10.851562 40.644531 9.332031 40.476562 L 6.339844 40.144531 L 11.757812 23.882812 C 11.910156 23.429688 11.992188 22.9375 12.007812 22.425781 C 12.300781 10.589844 21.96875 2 35 2 C 50.886719 2 58 12.046875 58 22 C 58 28.890625 56.335938 35.945312 53.183594 42.402344 C 52.453125 43.898438 52.160156 45.574219 52.335938 47.246094 L 53.773438 60.894531 C 53.804688 61.179688 53.714844 61.457031 53.519531 61.667969 Z M 53.519531 61.667969 "/>
<path style=" stroke:none;fill-rule:nonzero;fill:rgb(16.862745%,24.705882%,32.941176%);fill-opacity:1;" d="M 50.117188 17.3125 C 50.082031 16.886719 49.777344 16.527344 49.363281 16.421875 C 48.945312 16.320312 48.507812 16.496094 48.277344 16.855469 L 45.996094 20.441406 C 42.976562 17.011719 38.589844 15 34 15 C 25.179688 15 18 22.179688 18 31 C 18 39.820312 25.179688 47 34 47 C 39.539062 47 44.605469 44.191406 47.550781 39.488281 C 47.699219 39.253906 47.738281 38.960938 47.664062 38.691406 C 47.589844 38.421875 47.402344 38.195312 47.152344 38.066406 C 45.464844 37.214844 44.109375 36.609375 42.800781 36.027344 L 41.605469 35.492188 C 41.179688 35.300781 40.675781 35.429688 40.394531 35.804688 C 38.867188 37.835938 36.539062 39 34 39 C 29.589844 39 26 35.410156 26 31 C 26 26.589844 29.589844 23 34 23 C 36.574219 23 38.972656 24.230469 40.492188 26.328125 L 36.242188 29.03125 C 35.886719 29.261719 35.710938 29.691406 35.808594 30.105469 C 35.90625 30.519531 36.253906 30.824219 36.679688 30.871094 L 50.140625 32.238281 C 50.179688 32.242188 50.214844 32.242188 50.253906 32.242188 C 50.84375 32.230469 51.261719 31.800781 51.261719 31.242188 C 51.261719 31.144531 51.246094 31.054688 51.222656 30.964844 Z M 39.75 29.171875 L 42.449219 27.453125 C 42.679688 27.304688 42.839844 27.070312 42.894531 26.804688 C 42.945312 26.535156 42.886719 26.257812 42.730469 26.03125 L 42.3125 25.445312 C 40.449219 22.660156 37.34375 21 34 21 C 28.484375 21 24 25.484375 24 31 C 24 36.515625 28.484375 41 34 41 C 36.902344 41 39.589844 39.78125 41.484375 37.628906 L 41.984375 37.851562 C 42.996094 38.304688 44.035156 38.765625 45.230469 39.347656 C 42.59375 42.90625 38.472656 45 34 45 C 26.28125 45 20 38.71875 20 31 C 20 23.28125 26.28125 17 34 17 C 38.4375 17 42.652344 19.148438 45.285156 22.746094 C 45.480469 23.011719 45.789062 23.160156 46.121094 23.15625 C 46.453125 23.144531 46.757812 22.972656 46.933594 22.691406 L 48.363281 20.445312 L 49.148438 30.128906 Z M 39.75 29.171875 "/>
</g>
</svg>
