<svg xmlns="http://www.w3.org/2000/svg" viewBox="0 0 128 128" width="128px" height="128px"><path fill="#adf9d2" d="M64.4,124L64.4,124L64.4,124c28.9-11.9,42.7-44.9,30.9-73.8l0,0l0,0C66.4,62.1,52.6,95.1,64.4,124z"/><path fill="#6dc289" d="M85.4,109c10-11.4,15.1-26.5,13.9-41.8c-1.6,0.4-3.2,0.9-4.7,1.4c-1.7,0.6-3.6-0.5-3.9-2.3 c-0.7-4.1-1.8-8.2-3.2-12.2C71.1,64,61.2,81.3,60.3,99.8c0,0,0,0,0,0c0,0,0,0,0,0c0,1-0.1,1.9-0.1,2.9c0,0.1,0,0.1,0,0.2 c0,0.9,0,1.9,0.1,2.8c0,0,0,0.1,0,0.1c0.1,2,0.3,4,0.7,6c0,0.1,0,0.1,0,0.2c0.1,0.9,0.3,1.7,0.5,2.6c0.1,0.3,0.1,0.5,0.2,0.8 c0.2,0.7,0.3,1.4,0.5,2.1c0.1,0.3,0.2,0.6,0.3,0.9c0.2,0.7,0.4,1.3,0.6,2c0.1,0.3,0.2,0.6,0.3,0.8c0.3,0.9,0.7,1.8,1,2.8l0,0l0,0 c0.9-0.4,1.8-0.8,2.7-1.2c0.2-0.1,0.5-0.2,0.7-0.3c0.8-0.4,1.6-0.8,2.3-1.2c0.1-0.1,0.2-0.1,0.3-0.2c0.9-0.5,1.7-1,2.6-1.5 c0.2-0.1,0.4-0.2,0.6-0.4c0.7-0.5,1.4-1,2.2-1.5c0.1,0,0.1-0.1,0.2-0.1c1.7-1.2,3.3-2.5,4.8-3.9c0,0,0.1-0.1,0.1-0.1 C82.6,112.1,84,110.6,85.4,109C85.4,109.1,85.4,109.1,85.4,109C85.4,109.1,85.4,109.1,85.4,109z"/><path fill="#444b54" d="M64.4,127c-1.2,0-2.3-0.7-2.8-1.9c-6-14.7-6-30.9,0.1-45.6c6.1-14.7,17.6-26.1,32.3-32.1 c1.5-0.6,3.3,0.1,3.9,1.6c6,14.7,6,30.9-0.1,45.6c-6.1,14.7-17.6,26.1-32.3,32.1C65.2,126.9,64.8,127,64.4,127z M93.6,54.2 c-11.9,5.7-21.1,15.4-26.3,27.6s-5.5,25.7-1.2,38.1c11.9-5.7,21.1-15.4,26.3-27.6S97.9,66.7,93.6,54.2z"/><path fill="#adf9d2" d="M64.7,124L64.7,124L64.7,124C35.8,112.1,22,79.1,33.9,50.2l0,0l0,0C62.8,62.1,76.6,95.1,64.7,124z"/><path fill="#fff" d="M41.2,53.8c-6.4,17.4-5.9,36.7,1.4,53.8c5.7,7,13.2,12.7,22.2,16.4l0,0v0C75.6,97.6,65,67.9,41.2,53.8z"/><path fill="#444b54" d="M64.3,127c-0.4,0-0.8-0.1-1.1-0.2c-1.5-0.6-2.3-2.4-1.6-3.9c5.4-13.2,5.4-27.8-0.1-41 c-5.1-12.2-14.4-22-26.3-27.6c-1.3,3.7-2.2,7.5-2.6,11.4c-0.2,1.6-1.7,2.8-3.3,2.6c-1.6-0.2-2.8-1.7-2.6-3.3 c0.6-5.4,2-10.8,4.1-15.9c0.3-0.7,0.9-1.3,1.6-1.6c0.7-0.3,1.6-0.3,2.3,0c14.7,6,26.2,17.5,32.3,32.1c6.1,14.7,6.2,30.9,0.1,45.6 C66.6,126.3,65.5,127,64.3,127z"/><path fill="#adf9d2" d="M64,124L64,124L64,124c27.3,0,49.5-22.2,49.5-49.5v0h0c-6.8,0-13.3,1.4-19.3,3.9c-4.8,2-9.2,7.8-13.1,11.2 C70.6,98.7,64,109.1,64,124z"/><path fill="#6dc289" d="M91.9,79.5c-16.5,8-27.9,25-27.9,44.5v0h0c4.8,0,9.4-0.7,13.8-2C87.1,109.4,91.8,94.5,91.9,79.5z"/><path fill="#adf9d2" d="M64,124L64,124L64,124c-27.3,0-49.5-22.2-49.5-49.5v0h0C41.8,74.5,64,96.7,64,124z"/><path fill="#adf9d2" d="M64,124L64,124L64,124c-24.9-24.9-24.9-65.1,0-90l0,0l0,0C88.9,58.9,88.9,99.1,64,124z"/><path fill="#6dc289" d="M69.8,109.2c-0.5,0-1-0.1-1.4-0.4c-1.5-0.8-2-2.6-1.2-4.1c6.1-11.4,7.9-24.6,5.2-37.3 c-0.3-1.6,0.7-3.2,2.3-3.6c1.6-0.3,3.2,0.7,3.6,2.3c3,14.1,0.9,28.7-5.8,41.3C71.9,108.7,70.9,109.2,69.8,109.2z"/><path fill="#444b54" d="M99,121H88.3c16.7-8.8,28.2-26.3,28.2-46.5c0-1.7-1.3-3-3-3c-7.1,0-14,1.4-20.4,4.1c-1.5,0.6-2.2,2.4-1.6,3.9 c0.6,1.5,2.4,2.2,3.9,1.6c4.8-2,9.8-3.2,15-3.6c-1.4,21.8-18,39.5-39.2,42.8c9.5-11.9,14.6-26.6,14.4-42 c-0.1-17.6-7.1-34.1-19.5-46.6c-1.1-1.1-3.1-1.1-4.2,0C40.7,53.1,36.3,86,51.1,112c0.8,1.4,2.7,1.9,4.1,1.1 c1.4-0.8,1.9-2.7,1.1-4.1c-13-22.8-9.7-51.4,7.7-70.7c10,11,15.5,25.2,15.6,40.2c0.1,15.9-5.9,31-16.9,42.5 c-24-0.6-43.6-19.6-45.2-43.4c5,0.3,9.9,1.5,14.6,3.4c1.5,0.6,3.3-0.1,3.9-1.6c0.6-1.5-0.1-3.3-1.6-3.9c-6.3-2.6-13-3.9-19.9-3.9 c-1.7,0-3,1.3-3,3c0,20.2,11.4,37.7,28.2,46.5H29c-1.7,0-3,1.3-3,3s1.3,3,3,3h70c1.7,0,3-1.3,3-3S100.7,121,99,121z"/><g><path fill="#444b54" d="M114 121A3 3 0 1 0 114 127A3 3 0 1 0 114 121Z"/></g></svg>